<?xml version="1.0" encoding="UTF-8"?>
<!DOCTYPE svg PUBLIC "-//W3C//DTD SVG 1.1//EN" "http://www.w3.org/Graphics/SVG/1.1/DTD/svg11.dtd">
<svg xmlns="http://www.w3.org/2000/svg" version="1.1" width="2481px" height="945px" style="shape-rendering:geometricPrecision; text-rendering:geometricPrecision; image-rendering:optimizeQuality; fill-rule:evenodd; clip-rule:evenodd" xmlns:xlink="http://www.w3.org/1999/xlink">
<g><path style="opacity:1" fill="#ec7029" d="M 442.5,-0.5 C 462.167,-0.5 481.833,-0.5 501.5,-0.5C 623.944,9.73078 728.278,58.2308 814.5,145C 842.633,164.911 870.966,165.245 899.5,146C 985.865,58.6595 1090.53,9.82621 1213.5,-0.5C 1233.17,-0.5 1252.83,-0.5 1272.5,-0.5C 1393.42,9.47252 1496.76,56.9725 1582.5,142C 1607.44,159.366 1633.44,161.033 1660.5,147C 1664.34,144.578 1668.01,141.911 1671.5,139C 1745.98,65.4263 1835.31,20.4263 1939.5,4C 1952.63,2.35547 1965.63,0.855473 1978.5,-0.5C 1998.17,-0.5 2017.83,-0.5 2037.5,-0.5C 2195.97,13.9475 2319.14,86.9475 2407,218.5C 2451.72,289.811 2476.22,367.478 2480.5,451.5C 2480.5,465.167 2480.5,478.833 2480.5,492.5C 2470.49,641.371 2406.83,761.204 2289.5,852C 2214.68,906.445 2131.01,937.278 2038.5,944.5C 2017.83,944.5 1997.17,944.5 1976.5,944.5C 1857.75,934.669 1756.08,888.169 1671.5,805C 1645.4,784.433 1617.73,782.099 1588.5,798C 1572.17,812.333 1555.83,826.667 1539.5,841C 1461.32,901.906 1372.65,936.406 1273.5,944.5C 1253.17,944.5 1232.83,944.5 1212.5,944.5C 1088.61,933.845 983.273,884.345 896.5,796C 871.366,781.041 846.033,780.708 820.5,795C 806.833,807.333 793.167,819.667 779.5,832C 699.284,898.698 606.951,936.198 502.5,944.5C 481.833,944.5 461.167,944.5 440.5,944.5C 284.508,929.954 162.675,858.287 75,729.5C 30.7189,659.823 5.55225,583.823 -0.5,501.5C -0.5,481.833 -0.5,462.167 -0.5,442.5C 12.2224,296.858 76.2224,179.691 191.5,91C 266.342,36.6603 350.008,6.16033 442.5,-0.5 Z"/></g>
<g><path style="opacity:1" fill="#fefffe" d="M 549.5,182.5 C 451.647,159.235 362.981,178.068 283.5,239C 195.143,315.709 159.976,412.209 178,528.5C 197.338,619.087 246.838,687.587 326.5,734C 412.821,779.043 501.154,783.376 591.5,747C 687.379,702.453 745.879,628.286 767,524.5C 774.091,482.17 772.591,440.17 762.5,398.5C 780.611,393.764 798.778,389.097 817,384.5C 817.945,384.905 818.612,385.572 819,386.5C 845.836,509.157 818.503,617.824 737,712.5C 645.733,807.033 534.9,843.866 404.5,823C 283.947,796.763 197.447,727.93 145,616.5C 104.082,519.352 104.415,422.352 146,325.5C 199.924,213.276 288.091,144.776 410.5,120C 462.288,111.542 513.621,113.708 564.5,126.5C 559.808,145.269 554.808,163.936 549.5,182.5 Z"/></g>
<g><path style="opacity:1" fill="#fefffe" d="M 1533.5,544.5 C 1555.16,442.488 1532.33,351.821 1465,272.5C 1390.6,194.42 1299.77,162.92 1192.5,178C 1090.05,198.471 1016.22,255.638 971,349.5C 931.764,443.284 936.764,534.617 986,623.5C 1031.29,697.6 1096.46,744.434 1181.5,764C 1226.03,773.263 1270.36,772.43 1314.5,761.5C 1315.58,761.685 1316.58,762.018 1317.5,762.5C 1321.51,780.558 1325.85,798.558 1330.5,816.5C 1330.18,817.647 1329.52,818.481 1328.5,819C 1204.18,845.84 1094.51,817.507 999.5,734C 914.759,651.477 877.592,550.977 888,432.5C 904.121,312.995 963.621,222.495 1066.5,161C 1154.49,113.293 1246.82,102.627 1343.5,129C 1438.03,158.548 1509.53,216.382 1558,302.5C 1599.75,383.519 1610.59,468.519 1590.5,557.5C 1571.54,553.009 1552.54,548.676 1533.5,544.5 Z"/></g>
<g><path style="opacity:1" fill="#fefffe" d="M 2022.5,173.5 C 1914.76,171.788 1828.6,213.788 1764,299.5C 1714.6,371.535 1698.6,450.535 1716,536.5C 1739.6,632.233 1795.76,701.4 1884.5,744C 1979.99,783.941 2072.66,778.274 2162.5,727C 2259.14,663.237 2307.14,573.07 2306.5,456.5C 2325.81,455.22 2345.15,454.22 2364.5,453.5C 2367.35,576.262 2321.69,676.428 2227.5,754C 2127.02,828.024 2016.68,847.357 1896.5,812C 1779.01,770.512 1701.51,690.345 1664,571.5C 1636.4,468.043 1650.4,370.71 1706,279.5C 1777.65,173.484 1877.98,118.484 2007,114.5C 2013.18,114.754 2019.34,115.088 2025.5,115.5C 2024.17,134.806 2023.17,154.139 2022.5,173.5 Z"/></g>
<g><path style="opacity:1" fill="#fffefe" d="M 2092.5,184.5 C 2082.04,185.232 2072.38,182.899 2063.5,177.5C 2060.65,174.488 2057.99,171.321 2055.5,168C 2058.77,164.263 2062.61,161.096 2067,158.5C 2071.74,165.036 2078.07,169.036 2086,170.5C 2091.16,169.358 2091.66,167.191 2087.5,164C 2080.41,160.706 2073.91,156.54 2068,151.5C 2063.22,143.1 2064.05,135.267 2070.5,128C 2081.87,121.995 2093.2,122.329 2104.5,129C 2108.18,131.346 2111.18,134.346 2113.5,138C 2110.35,141.479 2106.85,144.646 2103,147.5C 2098.26,142.629 2092.6,139.296 2086,137.5C 2082.16,138.992 2081.66,141.158 2084.5,144C 2089.83,147 2095.17,150 2100.5,153C 2107.65,159.056 2109.48,166.556 2106,175.5C 2102.9,180.632 2098.4,183.632 2092.5,184.5 Z"/></g>
<g><path style="opacity:1" fill="#fefffe" d="M 619.5,210.5 C 606.764,204.464 594.097,198.464 581.5,192.5C 590.33,176.173 598.664,159.506 606.5,142.5C 607.723,141.386 609.056,141.219 610.5,142C 620.99,147.078 631.323,152.411 641.5,158C 648.369,164.789 649.202,172.289 644,180.5C 640.951,182.964 637.451,184.464 633.5,185C 639.548,193.842 638.548,201.842 630.5,209C 626.94,210.237 623.273,210.737 619.5,210.5 Z"/></g>
<g><path style="opacity:1" fill="#fefffe" d="M 2134.5,201.5 C 2129.34,200.169 2124.34,198.336 2119.5,196C 2118.75,195.329 2118.41,194.496 2118.5,193.5C 2126.63,175.914 2135.29,158.581 2144.5,141.5C 2155.9,146.612 2166.73,152.612 2177,159.5C 2185.29,173.564 2182.45,184.731 2168.5,193C 2158.72,194.917 2149.72,193.083 2141.5,187.5C 2138.66,191.844 2136.33,196.511 2134.5,201.5 Z"/></g>
<g><path style="opacity:1" fill="#ec7029" d="M 615.5,161.5 C 620.611,162.639 625.111,164.972 629,168.5C 630.141,171.857 628.975,173.857 625.5,174.5C 620.941,173.221 616.608,171.388 612.5,169C 614.202,166.765 615.202,164.265 615.5,161.5 Z"/></g>
<g><path style="opacity:1" fill="#ec7029" d="M 2152.5,162.5 C 2157.03,163.681 2160.86,166.014 2164,169.5C 2165.38,174.797 2163.38,178.131 2158,179.5C 2153.97,178.568 2150.47,176.734 2147.5,174C 2149.32,170.204 2150.98,166.37 2152.5,162.5 Z"/></g>
<g><path style="opacity:1" fill="#333740" d="M 549.5,182.5 C 560.224,185.63 570.89,188.963 581.5,192.5C 594.097,198.464 606.764,204.464 619.5,210.5C 626.959,215.735 634.626,220.735 642.5,225.5C 655.413,234.742 667.746,244.742 679.5,255.5C 683.167,259.833 687.167,263.833 691.5,267.5C 701.993,279.842 711.993,292.509 721.5,305.5C 724.167,309.833 726.833,314.167 729.5,318.5C 732.263,323.701 735.263,328.701 738.5,333.5C 740.597,338.689 742.93,343.689 745.5,348.5C 747.796,355.073 750.462,361.406 753.5,367.5C 756.702,377.774 759.702,388.107 762.5,398.5C 772.591,440.17 774.091,482.17 767,524.5C 745.879,628.286 687.379,702.453 591.5,747C 501.154,783.376 412.821,779.043 326.5,734C 246.838,687.587 197.338,619.087 178,528.5C 159.976,412.209 195.143,315.709 283.5,239C 362.981,178.068 451.647,159.235 549.5,182.5 Z"/></g>
<g><path style="opacity:1" fill="#333740" d="M 1533.5,544.5 C 1531.11,555.009 1528.11,565.343 1524.5,575.5C 1523.25,575.577 1522.42,576.244 1522,577.5C 1516.09,591.65 1509.92,605.65 1503.5,619.5C 1500.8,624.517 1498.14,629.517 1495.5,634.5C 1494.12,633.294 1492.95,633.627 1492,635.5C 1488.97,639.562 1486.47,643.895 1484.5,648.5C 1480.53,654.149 1476.53,659.815 1472.5,665.5C 1468.7,666.779 1465.53,669.112 1463,672.5C 1462.22,674.286 1461.05,675.786 1459.5,677C 1460.06,677.383 1460.39,677.883 1460.5,678.5C 1456.17,682.5 1451.83,686.5 1447.5,690.5C 1441.87,693.465 1437.21,697.465 1433.5,702.5C 1430.54,705.645 1427.21,708.312 1423.5,710.5C 1423.57,710.062 1423.4,709.728 1423,709.5C 1418.5,712.667 1414,715.833 1409.5,719C 1408.66,720.011 1408.33,721.178 1408.5,722.5C 1403.18,725.472 1397.85,728.472 1392.5,731.5C 1387.68,732.904 1383.01,734.904 1378.5,737.5C 1377.61,738.325 1377.28,739.325 1377.5,740.5C 1371.72,742.557 1366.05,744.89 1360.5,747.5C 1359.88,747.389 1359.38,747.056 1359,746.5C 1352.84,748.709 1347,751.376 1341.5,754.5C 1333.68,757.461 1325.68,760.128 1317.5,762.5C 1316.58,762.018 1315.58,761.685 1314.5,761.5C 1270.36,772.43 1226.03,773.263 1181.5,764C 1096.46,744.434 1031.29,697.6 986,623.5C 936.764,534.617 931.764,443.284 971,349.5C 1016.22,255.638 1090.05,198.471 1192.5,178C 1299.77,162.92 1390.6,194.42 1465,272.5C 1532.33,351.821 1555.16,442.488 1533.5,544.5 Z"/></g>
<g><path style="opacity:1" fill="#333740" d="M 2022.5,173.5 C 2036.26,173.954 2049.92,175.288 2063.5,177.5C 2072.38,182.899 2082.04,185.232 2092.5,184.5C 2101.08,187.473 2109.75,190.473 2118.5,193.5C 2118.41,194.496 2118.75,195.329 2119.5,196C 2124.34,198.336 2129.34,200.169 2134.5,201.5C 2148.73,207.279 2162.06,214.612 2174.5,223.5C 2174.51,225.017 2175.18,226.184 2176.5,227C 2180.11,228.944 2183.44,231.277 2186.5,234C 2187.58,234.47 2188.58,234.303 2189.5,233.5C 2193.85,237.845 2198.51,241.845 2203.5,245.5C 2203.35,246.552 2203.52,247.552 2204,248.5C 2208.06,252.07 2212.23,255.404 2216.5,258.5C 2220.5,262.167 2224.5,265.833 2228.5,269.5C 2228.49,271.308 2228.99,272.975 2230,274.5C 2233.67,278.5 2237.33,282.5 2241,286.5C 2241.4,286.272 2241.57,285.938 2241.5,285.5C 2244.49,289.462 2247.49,293.462 2250.5,297.5C 2252.6,303.389 2255.94,308.389 2260.5,312.5C 2265.66,320.136 2270.32,328.136 2274.5,336.5C 2275.35,341.537 2277.19,346.537 2280,351.5C 2280.67,352.252 2281.5,352.586 2282.5,352.5C 2286.53,363.586 2290.53,374.586 2294.5,385.5C 2293.95,395.914 2296.29,405.581 2301.5,414.5C 2303.82,428.42 2305.49,442.42 2306.5,456.5C 2307.14,573.07 2259.14,663.237 2162.5,727C 2072.66,778.274 1979.99,783.941 1884.5,744C 1795.76,701.4 1739.6,632.233 1716,536.5C 1698.6,450.535 1714.6,371.535 1764,299.5C 1828.6,213.788 1914.76,171.788 2022.5,173.5 Z"/></g>
<g><path style="opacity:1" fill="#fefffe" d="M 2189.5,233.5 C 2188.58,234.303 2187.58,234.47 2186.5,234C 2183.44,231.277 2180.11,228.944 2176.5,227C 2175.18,226.184 2174.51,225.017 2174.5,223.5C 2185.42,207.904 2196.76,192.57 2208.5,177.5C 2213.3,180.471 2217.97,183.638 2222.5,187C 2211.61,202.617 2200.61,218.117 2189.5,233.5 Z"/></g>
<g><path style="opacity:1" fill="#ec7029" d="M 606.5,180.5 C 611.265,182.382 615.932,184.548 620.5,187C 623.541,190.884 622.707,193.717 618,195.5C 612.903,193.369 608.07,190.869 603.5,188C 604.651,185.535 605.651,183.035 606.5,180.5 Z"/></g>
<g><path style="opacity:1" fill="#fefffe" d="M 679.5,255.5 C 667.746,244.742 655.413,234.742 642.5,225.5C 654.279,210.788 665.945,195.954 677.5,181C 678.5,180.333 679.5,180.333 680.5,181C 692.338,190.675 704.005,200.508 715.5,210.5C 712.806,214.54 709.639,218.207 706,221.5C 698.333,215.167 690.667,208.833 683,202.5C 681.315,204.017 679.815,205.684 678.5,207.5C 685.084,214.127 692.084,220.294 699.5,226C 696.833,229 694.167,232 691.5,235C 690.5,235.667 689.5,235.667 688.5,235C 682.534,229.355 676.201,224.188 669.5,219.5C 667.493,221.008 665.826,222.842 664.5,225C 672,231.167 679.5,237.333 687,243.5C 687.667,244.5 687.667,245.5 687,246.5C 684.665,249.665 682.165,252.665 679.5,255.5 Z"/></g>
<g><path style="opacity:1" fill="#fefffe" d="M 2241.5,285.5 C 2241.57,285.938 2241.4,286.272 2241,286.5C 2237.33,282.5 2233.67,278.5 2230,274.5C 2228.99,272.975 2228.49,271.308 2228.5,269.5C 2229.71,263.475 2231.04,257.475 2232.5,251.5C 2231.19,249.684 2229.69,248.017 2228,246.5C 2223.96,250.369 2220.13,254.369 2216.5,258.5C 2212.23,255.404 2208.06,252.07 2204,248.5C 2203.52,247.552 2203.35,246.552 2203.5,245.5C 2217.78,232.553 2231.78,219.22 2245.5,205.5C 2256.31,214.47 2265.48,224.804 2273,236.5C 2275.67,248.33 2271.5,256.83 2260.5,262C 2256.11,262.772 2251.78,262.606 2247.5,261.5C 2245.12,269.408 2243.12,277.408 2241.5,285.5 Z"/></g>
<g><path style="opacity:1" fill="#ec7029" d="M 2246.5,228.5 C 2251.05,231.88 2254.71,236.047 2257.5,241C 2255.2,247.487 2251.2,248.82 2245.5,245C 2243.54,242.037 2241.21,239.371 2238.5,237C 2241.37,234.297 2244.04,231.464 2246.5,228.5 Z"/></g>
<g><path style="opacity:1" fill="#fefffe" d="M 721.5,305.5 C 711.993,292.509 701.993,279.842 691.5,267.5C 705.883,254.798 720.883,242.798 736.5,231.5C 745.492,241.996 754.325,252.663 763,263.5C 764.751,265.212 765.418,267.212 765,269.5C 761.667,272.167 758.333,274.833 755,277.5C 749.094,270.683 743.427,263.683 738,256.5C 734.795,253.727 732.295,254.393 730.5,258.5C 735.833,265.5 741.167,272.5 746.5,279.5C 743.585,282.959 740.252,285.959 736.5,288.5C 730.675,281.837 725.008,275.004 719.5,268C 717.024,268.747 714.691,270.081 712.5,272C 719.228,279.723 725.561,287.723 731.5,296C 728.292,299.376 724.959,302.543 721.5,305.5 Z"/></g>
<g><path style="opacity:1" fill="#ec7029" d="M 2228.5,269.5 C 2224.5,265.833 2220.5,262.167 2216.5,258.5C 2220.13,254.369 2223.96,250.369 2228,246.5C 2229.69,248.017 2231.19,249.684 2232.5,251.5C 2231.04,257.475 2229.71,263.475 2228.5,269.5 Z"/></g>
<g><path style="opacity:1" fill="#fefffe" d="M 2260.5,312.5 C 2255.94,308.389 2252.6,303.389 2250.5,297.5C 2266.47,286.844 2282.47,276.177 2298.5,265.5C 2302.44,270.066 2305.27,275.066 2307,280.5C 2291.35,291.066 2275.85,301.733 2260.5,312.5 Z"/></g>
<g><path style="opacity:1" fill="#fefffe" d="M 753.5,367.5 C 750.462,361.406 747.796,355.073 745.5,348.5C 749.734,343.037 752.568,337.037 754,330.5C 753.632,329.09 752.799,328.09 751.5,327.5C 747.265,329.785 742.931,331.785 738.5,333.5C 735.263,328.701 732.263,323.701 729.5,318.5C 746.811,310.178 764.145,301.845 781.5,293.5C 784.156,296.801 786.322,300.468 788,304.5C 791,311.167 794,317.833 797,324.5C 800.18,342.99 792.347,351.824 773.5,351C 770.804,350.235 768.304,349.068 766,347.5C 761.558,354.063 757.391,360.729 753.5,367.5 Z"/></g>
<g><path style="opacity:1" fill="#fefffe" d="M 2282.5,352.5 C 2281.5,352.586 2280.67,352.252 2280,351.5C 2277.19,346.537 2275.35,341.537 2274.5,336.5C 2287.52,330.769 2300.52,324.936 2313.5,319C 2310.76,314.36 2308.43,309.527 2306.5,304.5C 2309.25,301.614 2312.58,299.447 2316.5,298C 2317.94,297.219 2319.28,297.386 2320.5,298.5C 2327.31,313.585 2334.31,328.585 2341.5,343.5C 2337.09,346.214 2332.42,348.048 2327.5,349C 2324.86,344.214 2322.36,339.38 2320,334.5C 2307.55,340.642 2295.05,346.642 2282.5,352.5 Z"/></g>
<g><path style="opacity:1" fill="#ec7029" d="M 775.5,315.5 C 779.817,320.446 781.483,326.113 780.5,332.5C 776.682,335.391 773.182,335.057 770,331.5C 768.294,327.921 766.461,324.421 764.5,321C 768.259,319.121 771.925,317.287 775.5,315.5 Z"/></g>
<g><path style="opacity:1" fill="#fefffe" d="M 1994.5,319.5 C 2040.47,317.066 2081.47,329.9 2117.5,358C 2105.96,374.92 2094.29,391.754 2082.5,408.5C 2061.41,392.628 2037.75,382.795 2011.5,379C 1999.08,377.631 1987.41,379.964 1976.5,386C 1963.56,398.365 1963.22,411.032 1975.5,424C 1979.67,426.588 1984.01,428.921 1988.5,431C 2013.83,438.667 2039.17,446.333 2064.5,454C 2120.03,475.908 2138.2,515.408 2119,572.5C 2106.59,597.807 2086.75,614.307 2059.5,622C 1995.23,636.182 1938.23,622.015 1888.5,579.5C 1901.13,563.236 1914.47,547.569 1928.5,532.5C 1948.48,549.822 1971.48,561.322 1997.5,567C 2009.51,568.945 2021.51,568.945 2033.5,567C 2052.71,563.813 2061.21,552.646 2059,533.5C 2057.66,529.49 2055.49,525.99 2052.5,523C 2046.61,518.887 2040.28,515.554 2033.5,513C 2011.97,506.201 1990.3,499.867 1968.5,494C 1907.81,474.456 1887.64,434.289 1908,373.5C 1920.22,348.622 1939.72,332.456 1966.5,325C 1975.84,322.459 1985.17,320.626 1994.5,319.5 Z"/></g>
<g><path style="opacity:1" fill="#fefffe" d="M 365.5,323.5 C 418.184,323.06 470.851,323.56 523.5,325C 550.963,327.147 573.463,338.647 591,359.5C 606.862,386.481 607.529,413.814 593,441.5C 585.742,452.093 576.575,460.593 565.5,467C 610.879,484.246 628.045,516.746 617,564.5C 611.387,583.105 600.22,597.272 583.5,607C 564.381,616.863 544.047,622.197 522.5,623C 470.168,623.5 417.834,623.667 365.5,623.5C 365.5,523.5 365.5,423.5 365.5,323.5 Z"/></g>
<g><path style="opacity:1" fill="#fefffe" d="M 1033.5,323.5 C 1057.5,323.5 1081.5,323.5 1105.5,323.5C 1121.37,390.321 1137.87,456.987 1155,523.5C 1175.16,457.213 1195.16,390.879 1215,324.5C 1234.42,323.507 1253.92,323.174 1273.5,323.5C 1292.72,390.064 1312.72,456.398 1333.5,522.5C 1350.31,456.596 1366.81,390.596 1383,324.5C 1406.09,323.506 1429.26,323.173 1452.5,323.5C 1423.21,424.203 1393.21,524.703 1362.5,625C 1342.93,625.826 1323.43,625.659 1304,624.5C 1283.97,560.394 1263.64,496.394 1243,432.5C 1223.13,496.597 1202.97,560.597 1182.5,624.5C 1162.84,625.5 1143.18,625.833 1123.5,625.5C 1093.7,524.774 1063.7,424.108 1033.5,323.5 Z"/></g>
<g><path style="opacity:1" fill="#ec7029" d="M 745.5,348.5 C 742.93,343.689 740.597,338.689 738.5,333.5C 742.931,331.785 747.265,329.785 751.5,327.5C 752.799,328.09 753.632,329.09 754,330.5C 752.568,337.037 749.734,343.037 745.5,348.5 Z"/></g>
<g><path style="opacity:1" fill="#fefffe" d="M 2301.5,414.5 C 2296.29,405.581 2293.95,395.914 2294.5,385.5C 2295.4,380.96 2297.06,376.627 2299.5,372.5C 2304.31,374.072 2308.65,376.405 2312.5,379.5C 2308.79,387.106 2308.63,394.772 2312,402.5C 2314.02,403.991 2315.69,403.658 2317,401.5C 2317.33,395.833 2317.67,390.167 2318,384.5C 2318.52,373.65 2324.18,367.65 2335,366.5C 2346.31,368.473 2352.97,375.14 2355,386.5C 2356.92,393.909 2356.59,401.242 2354,408.5C 2353.61,409.428 2352.95,410.095 2352,410.5C 2347.23,409.244 2342.73,407.411 2338.5,405C 2342.97,397.357 2342.47,390.191 2337,383.5C 2335.67,384.167 2334.67,385.167 2334,386.5C 2333.86,394.229 2333.19,401.895 2332,409.5C 2330.5,415 2327,418.5 2321.5,420C 2313.71,421.868 2307.05,420.035 2301.5,414.5 Z"/></g>
<g><path style="opacity:1" fill="#333740" d="M 430.5,382.5 C 454.836,382.333 479.169,382.5 503.5,383C 515.402,383.701 525.236,388.535 533,397.5C 539.854,411.856 537.687,424.689 526.5,436C 519.123,440.511 511.123,443.178 502.5,444C 478.502,444.5 454.502,444.667 430.5,444.5C 430.5,423.833 430.5,403.167 430.5,382.5 Z"/></g>
<g><path style="opacity:1" fill="#333740" d="M 430.5,500.5 C 459.835,500.333 489.169,500.5 518.5,501C 530.661,501.822 540.827,506.655 549,515.5C 559.239,543.182 549.739,559.349 520.5,564C 490.502,564.5 460.502,564.667 430.5,564.5C 430.5,543.167 430.5,521.833 430.5,500.5 Z"/></g>
<g><path style="opacity:1" fill="#fefffe" d="M 1524.5,575.5 C 1528.44,577.807 1532.44,580.14 1536.5,582.5C 1532.45,591.481 1528.12,600.315 1523.5,609C 1525.74,611.235 1528.24,612.068 1531,611.5C 1534.23,604.045 1537.73,596.712 1541.5,589.5C 1546.02,589.146 1550.18,590.48 1554,593.5C 1550.73,601.623 1547.23,609.79 1543.5,618C 1545.38,619.86 1547.54,621.36 1550,622.5C 1554.17,613.5 1558.33,604.5 1562.5,595.5C 1563.36,594.417 1564.36,594.251 1565.5,595C 1569.2,596.849 1572.86,598.682 1576.5,600.5C 1570.27,615.297 1563.27,629.631 1555.5,643.5C 1538.14,635.488 1520.81,627.488 1503.5,619.5C 1509.92,605.65 1516.09,591.65 1522,577.5C 1522.42,576.244 1523.25,575.577 1524.5,575.5 Z"/></g>
<g><path style="opacity:1" fill="#fefffe" d="M 1495.5,634.5 C 1510.51,646.507 1525.51,658.507 1540.5,670.5C 1538.03,674.142 1535.36,677.642 1532.5,681C 1519.5,681.333 1506.5,681.667 1493.5,682C 1501.02,688.356 1508.69,694.523 1516.5,700.5C 1513.5,704.5 1510.5,708.5 1507.5,712.5C 1506.64,713.583 1505.64,713.749 1504.5,713C 1489.98,701.25 1475.32,689.75 1460.5,678.5C 1460.39,677.883 1460.06,677.383 1459.5,677C 1461.05,675.786 1462.22,674.286 1463,672.5C 1465.53,669.112 1468.7,666.779 1472.5,665.5C 1483.84,665.667 1495.17,665.5 1506.5,665C 1499.32,659.248 1491.98,653.748 1484.5,648.5C 1486.47,643.895 1488.97,639.562 1492,635.5C 1492.95,633.627 1494.12,633.294 1495.5,634.5 Z"/></g>
<g><path style="opacity:1" fill="#ec7029" d="M 1484.5,648.5 C 1491.98,653.748 1499.32,659.248 1506.5,665C 1495.17,665.5 1483.84,665.667 1472.5,665.5C 1476.53,659.815 1480.53,654.149 1484.5,648.5 Z"/></g>
<g><path style="opacity:1" fill="#fefffe" d="M 1447.5,690.5 C 1459.06,704.904 1471.23,718.904 1484,732.5C 1481.23,737.617 1477.23,741.951 1472,745.5C 1458.93,731.27 1446.1,716.937 1433.5,702.5C 1437.21,697.465 1441.87,693.465 1447.5,690.5 Z"/></g>
<g><path style="opacity:1" fill="#fffefe" d="M 1423.5,710.5 C 1427.33,730.951 1430.99,751.451 1434.5,772C 1434.41,773.107 1434.08,774.107 1433.5,775C 1431,776.08 1428.67,777.414 1426.5,779C 1424.64,780.301 1422.64,780.635 1420.5,780C 1413,773.167 1405.5,766.333 1398,759.5C 1398.57,770.133 1400.07,780.633 1402.5,791C 1398.49,794.005 1394.16,796.505 1389.5,798.5C 1373.18,784.18 1357.18,769.513 1341.5,754.5C 1347,751.376 1352.84,748.709 1359,746.5C 1359.38,747.056 1359.88,747.389 1360.5,747.5C 1367.8,755.298 1375.3,762.965 1383,770.5C 1381.7,760.355 1379.87,750.355 1377.5,740.5C 1377.28,739.325 1377.61,738.325 1378.5,737.5C 1383.01,734.904 1387.68,732.904 1392.5,731.5C 1399.16,738.995 1406.33,745.995 1414,752.5C 1412.88,742.388 1411.04,732.388 1408.5,722.5C 1408.33,721.178 1408.66,720.011 1409.5,719C 1414,715.833 1418.5,712.667 1423,709.5C 1423.4,709.728 1423.57,710.062 1423.5,710.5 Z"/></g>
<g><path style="opacity:1" fill="#ec7029" d="M 1408.5,722.5 C 1411.04,732.388 1412.88,742.388 1414,752.5C 1406.33,745.995 1399.16,738.995 1392.5,731.5C 1397.85,728.472 1403.18,725.472 1408.5,722.5 Z"/></g>
<g><path style="opacity:1" fill="#ec7029" d="M 1377.5,740.5 C 1379.87,750.355 1381.7,760.355 1383,770.5C 1375.3,762.965 1367.8,755.298 1360.5,747.5C 1366.05,744.89 1371.72,742.557 1377.5,740.5 Z"/></g>
</svg>
