<?xml version="1.0" encoding="UTF-8"?>
<!DOCTYPE svg PUBLIC "-//W3C//DTD SVG 1.1//EN" "http://www.w3.org/Graphics/SVG/1.1/DTD/svg11.dtd">
<svg xmlns="http://www.w3.org/2000/svg" version="1.1" viewBox="0 0 3850 609" width="200" height="30" style="shape-rendering:geometricPrecision; text-rendering:geometricPrecision; image-rendering:optimizeQuality; fill-rule:evenodd; clip-rule:evenodd" xmlns:xlink="http://www.w3.org/1999/xlink">
<g><path style="opacity:1" fill="#1c421f" d="M -0.5,6.5 C 86.5006,6.33334 173.501,6.5 260.5,7C 340.354,9.82773 402.521,43.9944 447,109.5C 474.727,156.504 485.06,207.171 478,261.5C 465.421,339.505 423.588,395.672 352.5,430C 323.336,441.873 293.003,448.54 261.5,450C 174.167,450.5 86.834,450.667 -0.5,450.5C -0.5,438.5 -0.5,426.5 -0.5,414.5C 16.1667,414.5 32.8333,414.5 49.5,414.5C 49.5,290.5 49.5,166.5 49.5,42.5C 32.8333,42.5 16.1667,42.5 -0.5,42.5C -0.5,30.5 -0.5,18.5 -0.5,6.5 Z M 179.5,42.5 C 203.169,42.3334 226.836,42.5 250.5,43C 287.387,42.1681 311.887,59.0015 324,93.5C 331.458,119.281 335.124,145.614 335,172.5C 335.667,213.167 335.667,253.833 335,294.5C 334.594,311.295 332.928,327.962 330,344.5C 325.835,367.009 315.335,385.842 298.5,401C 287.871,407.91 276.204,411.91 263.5,413C 235.524,414.399 207.524,414.899 179.5,414.5C 179.5,290.5 179.5,166.5 179.5,42.5 Z"/></g>
<g><path style="opacity:1" fill="#1c421f" d="M 1264.5,6.5 C 1330.5,6.5 1396.5,6.5 1462.5,6.5C 1486.49,80.971 1510.99,155.304 1536,229.5C 1561.97,155.241 1588.14,81.0745 1614.5,7C 1670.5,6.50001 1726.5,6.33334 1782.5,6.5C 1782.5,18.5 1782.5,30.5 1782.5,42.5C 1772.83,42.5 1763.17,42.5 1753.5,42.5C 1753.5,166.5 1753.5,290.5 1753.5,414.5C 1763.17,414.5 1772.83,414.5 1782.5,414.5C 1782.5,426.5 1782.5,438.5 1782.5,450.5C 1712.17,450.5 1641.83,450.5 1571.5,450.5C 1571.5,438.5 1571.5,426.5 1571.5,414.5C 1590.17,414.5 1608.83,414.5 1627.5,414.5C 1627.67,304.499 1627.5,194.499 1627,84.5C 1586.73,206.487 1546.56,328.487 1506.5,450.5C 1494.5,450.5 1482.5,450.5 1470.5,450.5C 1431.84,328.697 1392.68,207.031 1353,85.5C 1352.02,190.526 1352.35,295.526 1354,400.5C 1356.06,408.559 1361.23,413.059 1369.5,414C 1383.16,414.5 1396.83,414.667 1410.5,414.5C 1410.5,426.5 1410.5,438.5 1410.5,450.5C 1361.83,450.5 1313.17,450.5 1264.5,450.5C 1264.5,438.5 1264.5,426.5 1264.5,414.5C 1277.24,414.941 1289.91,414.441 1302.5,413C 1310.28,408.042 1314.11,400.876 1314,391.5C 1314.5,275.167 1314.67,158.834 1314.5,42.5C 1297.83,42.5 1281.17,42.5 1264.5,42.5C 1264.5,30.5 1264.5,18.5 1264.5,6.5 Z"/></g>
<g><path style="opacity:1" fill="#1c421f" d="M 2856.5,10.5 C 2906.5,10.5 2956.5,10.5 3006.5,10.5C 3006.33,76.8342 3006.5,143.168 3007,209.5C 3037.81,170.032 3078.31,153.532 3128.5,160C 3149.79,160.863 3167.62,169.029 3182,184.5C 3192.3,201.682 3197.3,220.349 3197,240.5C 3197.5,298.499 3197.67,356.499 3197.5,414.5C 3207.17,414.5 3216.83,414.5 3226.5,414.5C 3226.5,426.5 3226.5,438.5 3226.5,450.5C 3170.83,450.5 3115.17,450.5 3059.5,450.5C 3059.5,438.5 3059.5,426.5 3059.5,414.5C 3069.17,414.5 3078.83,414.5 3088.5,414.5C 3088.67,351.166 3088.5,287.832 3088,224.5C 3086.18,206.996 3076.68,200.496 3059.5,205C 3042.67,211.495 3029.83,222.662 3021,238.5C 3012.92,253.495 3008.25,269.495 3007,286.5C 3006.5,329.165 3006.33,371.832 3006.5,414.5C 3016.17,414.5 3025.83,414.5 3035.5,414.5C 3035.5,426.5 3035.5,438.5 3035.5,450.5C 2979.5,450.5 2923.5,450.5 2867.5,450.5C 2867.5,438.5 2867.5,426.5 2867.5,414.5C 2876.83,414.5 2886.17,414.5 2895.5,414.5C 2895.5,289.833 2895.5,165.167 2895.5,40.5C 2882.5,40.5 2869.5,40.5 2856.5,40.5C 2856.5,30.5 2856.5,20.5 2856.5,10.5 Z"/></g>
<g><path style="opacity:1" fill="#1c421f" d="M 3586.5,83.5 C 3635.25,83.754 3652.08,107.087 3637,153.5C 3624.47,182.024 3602.64,197.691 3571.5,200.5C 3571.17,188.482 3571.5,176.482 3572.5,164.5C 3584,162.622 3593.83,157.622 3602,149.5C 3603.95,146.36 3604.95,143.027 3605,139.5C 3594.59,147.049 3583.09,149.215 3570.5,146C 3555.14,138.108 3549.31,125.608 3553,108.5C 3558.89,93.1088 3570.06,84.7755 3586.5,83.5 Z"/></g>
<g><path style="opacity:1" fill="#1c421f" d="M 2707.5,156.5 C 2772.72,152.176 2818.89,179.509 2846,238.5C 2866.04,291.211 2863.04,342.545 2837,392.5C 2804.36,442.729 2758.19,463.562 2698.5,455C 2676.47,450.574 2657.97,440.074 2643,423.5C 2642.5,470.499 2642.33,517.499 2642.5,564.5C 2659.17,564.5 2675.83,564.5 2692.5,564.5C 2692.5,576.5 2692.5,588.5 2692.5,600.5C 2625.83,600.5 2559.17,600.5 2492.5,600.5C 2492.5,588.5 2492.5,576.5 2492.5,564.5C 2505.5,564.5 2518.5,564.5 2531.5,564.5C 2531.5,442.5 2531.5,320.5 2531.5,198.5C 2519.83,198.5 2508.17,198.5 2496.5,198.5C 2496.5,187.167 2496.5,175.833 2496.5,164.5C 2545.17,164.5 2593.83,164.5 2642.5,164.5C 2642.33,173.173 2642.5,181.84 2643,190.5C 2660.44,171.365 2681.94,160.032 2707.5,156.5 Z M 2700.5,191.5 C 2707.51,191.334 2714.51,191.5 2721.5,192C 2727.89,192.727 2732.22,196.061 2734.5,202C 2736.75,207.957 2737.91,214.124 2738,220.5C 2738.96,280.855 2738.63,341.189 2737,401.5C 2735.09,416.744 2726.42,424.077 2711,423.5C 2680.27,421.101 2659.6,405.434 2649,376.5C 2645.9,367.748 2643.9,358.748 2643,349.5C 2642.33,321.167 2642.33,292.833 2643,264.5C 2645.06,242.9 2653.22,224.067 2667.5,208C 2676.96,199.272 2687.96,193.772 2700.5,191.5 Z"/></g>
<g><path style="opacity:1" fill="#1c421f" d="M 3849.5,318.5 C 3849.5,337.167 3849.5,355.833 3849.5,374.5C 3836.81,426.662 3803.48,454.496 3749.5,458C 3722.73,459.987 3697.07,455.653 3672.5,445C 3668.25,442.626 3664.08,440.126 3660,437.5C 3654.74,441.547 3649.58,445.713 3644.5,450C 3635.17,450.5 3625.84,450.666 3616.5,450.5C 3615.56,415.513 3615.23,380.513 3615.5,345.5C 3625.84,345.334 3636.17,345.5 3646.5,346C 3663.2,411.691 3704.53,436.358 3770.5,420C 3790.36,412.159 3799.53,397.659 3798,376.5C 3796.57,373.073 3794.4,370.24 3791.5,368C 3786.19,365.007 3780.52,363.007 3774.5,362C 3751.51,358.585 3728.51,355.252 3705.5,352C 3627.03,339.481 3599.2,294.981 3622,218.5C 3636.88,183.972 3663.05,164.139 3700.5,159C 3730.01,155.311 3758.18,159.811 3785,172.5C 3788.55,168.65 3792.38,165.15 3796.5,162C 3805.16,161.5 3813.83,161.334 3822.5,161.5C 3822.81,188.843 3823.48,216.177 3824.5,243.5C 3813.83,243.5 3803.17,243.5 3792.5,243.5C 3785.66,211.488 3765.99,193.654 3733.5,190C 3714.57,187.703 3696.57,190.703 3679.5,199C 3671.81,203.688 3666.81,210.355 3664.5,219C 3666.53,228.029 3672.2,233.362 3681.5,235C 3711.07,240.238 3740.73,244.905 3770.5,249C 3790.04,252.609 3807.71,260.276 3823.5,272C 3837.27,284.705 3845.93,300.205 3849.5,318.5 Z"/></g>
<g><path style="opacity:1" fill="#1c421f" d="M 631.5,158.5 C 648.503,158.333 665.503,158.5 682.5,159C 706.026,160.131 728.359,165.798 749.5,176C 766.293,185.145 775.46,199.312 777,218.5C 777.036,276.855 777.703,335.189 779,393.5C 780.108,400.503 782.941,406.67 787.5,412C 792.355,415.059 797.689,416.226 803.5,415.5C 803.267,435.569 793.601,448.736 774.5,455C 735.466,464.61 705.466,452.443 684.5,418.5C 656.459,446.023 622.625,459.357 583,458.5C 525.539,457.043 498.872,427.71 503,370.5C 506.472,351.389 515.305,335.222 529.5,322C 547.208,307.478 567.208,297.144 589.5,291C 618.318,283.231 647.651,279.398 677.5,279.5C 677.941,254.795 677.441,230.129 676,205.5C 673.631,198.464 668.798,194.297 661.5,193C 646.596,189.079 631.93,189.746 617.5,195C 612.76,196.589 609.093,199.422 606.5,203.5C 619.323,221.993 620.823,241.327 611,261.5C 602.881,272.146 592.048,277.98 578.5,279C 545.037,282.689 527.37,267.856 525.5,234.5C 525.327,222.521 528.494,211.521 535,201.5C 549.266,183.27 567.766,171.437 590.5,166C 604.151,162.616 617.818,160.116 631.5,158.5 Z M 666.5,312.5 C 670.167,312.5 673.833,312.5 677.5,312.5C 677.667,331.503 677.5,350.503 677,369.5C 672.181,395.968 656.348,407.468 629.5,404C 621.921,402.092 616.421,397.592 613,390.5C 608.762,376.135 607.429,361.468 609,346.5C 613.355,327.156 625.522,316.656 645.5,315C 652.649,314.163 659.649,313.33 666.5,312.5 Z"/></g>
<g><path style="opacity:1" fill="#1c421f" d="M 1070.5,158.5 C 1091.08,157.491 1111.08,160.324 1130.5,167C 1150.94,177.132 1162.44,193.632 1165,216.5C 1165.86,222.143 1166.53,227.81 1167,233.5C 1167.5,293.832 1167.67,354.166 1167.5,414.5C 1177.17,414.5 1186.83,414.5 1196.5,414.5C 1196.5,426.5 1196.5,438.5 1196.5,450.5C 1141.17,450.5 1085.83,450.5 1030.5,450.5C 1030.5,438.5 1030.5,426.5 1030.5,414.5C 1040.17,414.5 1049.83,414.5 1059.5,414.5C 1059.67,352.832 1059.5,291.166 1059,229.5C 1058.98,206.8 1048.15,198.633 1026.5,205C 1013.16,211.343 1002.66,220.843 995,233.5C 984.694,250.717 979.027,269.383 978,289.5C 977.5,331.165 977.333,372.832 977.5,414.5C 987.167,414.5 996.833,414.5 1006.5,414.5C 1006.5,426.5 1006.5,438.5 1006.5,450.5C 950.5,450.5 894.5,450.5 838.5,450.5C 838.5,438.5 838.5,426.5 838.5,414.5C 848.167,414.5 857.833,414.5 867.5,414.5C 867.5,343.167 867.5,271.833 867.5,200.5C 857.833,200.5 848.167,200.5 838.5,200.5C 838.5,188.5 838.5,176.5 838.5,164.5C 884.833,164.5 931.167,164.5 977.5,164.5C 977.333,179.17 977.5,193.837 978,208.5C 1001.23,177.802 1032.06,161.135 1070.5,158.5 Z"/></g>
<g><path style="opacity:1" fill="#1c421f" d="M 1803.5,165.5 C 1850.66,164.501 1898,164.168 1945.5,164.5C 1945.33,241.167 1945.5,317.834 1946,394.5C 1949.72,410.438 1959.55,415.938 1975.5,411C 1989.43,405.078 2000.26,395.578 2008,382.5C 2018.63,364.639 2024.63,345.305 2026,324.5C 2026.5,283.168 2026.67,241.835 2026.5,200.5C 2016.83,200.5 2007.17,200.5 1997.5,200.5C 1997.5,188.5 1997.5,176.5 1997.5,164.5C 2043.83,164.5 2090.17,164.5 2136.5,164.5C 2136.5,247.833 2136.5,331.167 2136.5,414.5C 2146.17,414.5 2155.83,414.5 2165.5,414.5C 2165.5,426.5 2165.5,438.5 2165.5,450.5C 2119.17,450.5 2072.83,450.5 2026.5,450.5C 2026.67,435.83 2026.5,421.163 2026,406.5C 1996.38,445.876 1956.88,462.71 1907.5,457C 1884.3,455.479 1864.8,446.313 1849,429.5C 1841.81,418.591 1837.81,406.591 1837,393.5C 1836.5,329.168 1836.33,264.834 1836.5,200.5C 1827.17,200.5 1817.83,200.5 1808.5,200.5C 1808.5,188.833 1808.5,177.167 1808.5,165.5C 1806.83,165.5 1805.17,165.5 1803.5,165.5 Z"/></g>
<g><path style="opacity:1" fill="#1c421f" d="M 2196.5,164.5 C 2242.5,164.5 2288.5,164.5 2334.5,164.5C 2334.33,178.504 2334.5,192.504 2335,206.5C 2356.72,175.559 2386.56,161.726 2424.5,165C 2455.71,171.036 2472.04,189.869 2473.5,221.5C 2472.95,248.543 2459.61,265.377 2433.5,272C 2398.71,275.04 2379.37,259.207 2375.5,224.5C 2375.74,218.54 2377.41,213.04 2380.5,208C 2379.83,207.333 2379.17,207.333 2378.5,208C 2355.32,229.517 2341.49,256.017 2337,287.5C 2336.5,329.832 2336.33,372.165 2336.5,414.5C 2345.83,414.5 2355.17,414.5 2364.5,414.5C 2364.5,426.5 2364.5,438.5 2364.5,450.5C 2308.5,450.5 2252.5,450.5 2196.5,450.5C 2196.5,438.5 2196.5,426.5 2196.5,414.5C 2206.17,414.5 2215.83,414.5 2225.5,414.5C 2225.5,343.167 2225.5,271.833 2225.5,200.5C 2215.83,200.5 2206.17,200.5 2196.5,200.5C 2196.5,188.5 2196.5,176.5 2196.5,164.5 Z"/></g>
<g><path style="opacity:1" fill="#1c421f" d="M 3214.5,164.5 C 3273.17,164.5 3331.83,164.5 3390.5,164.5C 3390.5,176.5 3390.5,188.5 3390.5,200.5C 3382.47,200.169 3374.47,200.502 3366.5,201.5C 3385,241.167 3403.5,280.833 3422,320.5C 3438.56,282.817 3454.73,244.983 3470.5,207C 3470.19,203.359 3468.19,201.359 3464.5,201C 3453.17,200.5 3441.84,200.333 3430.5,200.5C 3430.5,188.5 3430.5,176.5 3430.5,164.5C 3469.83,164.5 3509.17,164.5 3548.5,164.5C 3548.5,176.5 3548.5,188.5 3548.5,200.5C 3538.16,200.334 3527.83,200.5 3517.5,201C 3513.73,202.442 3510.89,204.942 3509,208.5C 3462.78,314.935 3417.12,421.601 3372,528.5C 3361.77,552.492 3346.6,572.658 3326.5,589C 3305.36,603.435 3283.03,605.769 3259.5,596C 3245.5,587.354 3238.5,574.687 3238.5,558C 3240.85,530.074 3256.01,515.241 3284,513.5C 3292.4,513.633 3300.23,515.8 3307.5,520C 3313.13,524.633 3318.47,529.633 3323.5,535C 3324.5,535.667 3325.5,535.667 3326.5,535C 3333.2,528.274 3338.37,520.441 3342,511.5C 3351.5,489.167 3361,466.833 3370.5,444.5C 3329.33,363.5 3288.17,282.5 3247,201.5C 3236.25,200.513 3225.41,200.18 3214.5,200.5C 3214.5,188.5 3214.5,176.5 3214.5,164.5 Z"/></g>
</svg>
