<svg xmlns="http://www.w3.org/2000/svg" xmlns:xlink="http://www.w3.org/1999/xlink" version="1.1" style="shape-rendering:geometricPrecision; text-rendering:geometricPrecision; image-rendering:optimizeQuality; fill-rule:evenodd; clip-rule:evenodd" viewBox="194.5 156.38 654.06 728.14"><g><path style="opacity:0.988" fill="#fefffe" d="M 512.5,156.5 C 545.507,156.167 578.507,156.5 611.5,157.5C 551.667,315.833 491.833,474.167 432,632.5C 431.121,635.346 429.454,636.013 427,634.5C 411.028,592.722 395.194,550.888 379.5,509C 424.138,391.581 468.472,274.081 512.5,156.5 Z"></path></g><g><path style="opacity:0.82" fill="#fefffe" d="M 635.5,156.5 C 706.167,156.5 776.833,156.5 847.5,156.5C 852.277,189.425 840.944,214.925 813.5,233C 805.042,237.486 796.042,240.152 786.5,241C 725.5,241.667 664.5,241.667 603.5,241C 614.268,212.86 624.935,184.694 635.5,156.5 Z"></path></g><g><path style="opacity:0.987" fill="#f580fc" d="M 194.5,328.5 C 204.328,327.834 214.328,327.5 224.5,327.5C 262.639,321.808 289.139,336.474 304,371.5C 337.167,459.167 370.333,546.833 403.5,634.5C 372.507,635.5 341.507,635.833 310.5,635.5C 272.208,532.948 233.541,430.614 194.5,328.5 Z"></path></g><g><path style="opacity:0.808" fill="#fefffe" d="M 561.5,351.5 C 630.833,351.5 700.167,351.5 769.5,351.5C 773.741,377.489 767.575,400.489 751,420.5C 739.682,431.408 726.182,437.908 710.5,440C 649.831,440.833 589.164,440.667 528.5,439.5C 539.513,410.146 550.513,380.812 561.5,351.5 Z"></path></g><g><path style="opacity:0.796" fill="#fefffe" d="M 486.5,550.5 C 555.5,550.5 624.5,550.5 693.5,550.5C 696.878,573.995 691.378,594.995 677,613.5C 666.076,625.402 652.576,632.569 636.5,635C 575.831,635.833 515.164,635.667 454.5,634.5C 465.371,606.549 476.038,578.549 486.5,550.5 Z"></path></g><g><path style="opacity:0.969" fill="#f580fc" d="M 466.5,697.5 C 509.812,695.893 540.645,714.56 559,753.5C 570.518,786.514 567.184,817.847 549,847.5C 523.994,878.616 491.827,890.116 452.5,882C 414.886,871.048 392.719,846.215 386,807.5C 380.221,765.108 395.055,732.274 430.5,709C 441.928,702.984 453.928,699.151 466.5,697.5 Z M 472.5,725.5 C 501.625,726.806 521.125,741.14 531,768.5C 538.517,794.92 533.517,818.587 516,839.5C 487.775,862.676 460.109,862.01 433,837.5C 415.36,814.65 411.693,789.65 422,762.5C 432.238,740.982 449.071,728.649 472.5,725.5 Z"></path></g><g><path style="opacity:0.969" fill="#f580fc" d="M 214.5,701.5 C 225.415,701.18 236.248,701.513 247,702.5C 275.725,744.227 304.058,786.227 332,828.5C 332.5,786.168 332.667,743.835 332.5,701.5C 342.5,701.5 352.5,701.5 362.5,701.5C 362.5,761.167 362.5,820.833 362.5,880.5C 351.585,880.82 340.752,880.487 330,879.5C 301.276,838.441 272.943,797.108 245,755.5C 244.5,797.165 244.333,838.832 244.5,880.5C 234.5,880.5 224.5,880.5 214.5,880.5C 214.5,820.833 214.5,761.167 214.5,701.5 Z"></path></g><g><path style="opacity:0.971" fill="#f580fc" d="M 568.5,701.5 C 579.833,701.5 591.167,701.5 602.5,701.5C 615.295,747.056 627.795,792.723 640,838.5C 653.81,792.904 667.31,747.237 680.5,701.5C 692.167,701.5 703.833,701.5 715.5,701.5C 728.687,747.231 742.187,792.898 756,838.5C 768.349,792.77 780.849,747.104 793.5,701.5C 804.833,701.5 816.167,701.5 827.5,701.5C 810.167,761.167 792.833,820.833 775.5,880.5C 762.92,880.822 750.42,880.489 738,879.5C 724.06,836.014 710.727,792.348 698,748.5C 685.332,792.668 672.166,836.668 658.5,880.5C 645.833,880.5 633.167,880.5 620.5,880.5C 603.323,820.795 585.99,761.128 568.5,701.5 Z"></path></g></svg>