<?xml version="1.0" encoding="UTF-8"?>
<!DOCTYPE svg PUBLIC "-//W3C//DTD SVG 1.1//EN" "http://www.w3.org/Graphics/SVG/1.1/DTD/svg11.dtd">
<svg xmlns="http://www.w3.org/2000/svg" version="1.1" width="3743px" height="830px" style="shape-rendering:geometricPrecision; text-rendering:geometricPrecision; image-rendering:optimizeQuality; fill-rule:evenodd; clip-rule:evenodd" xmlns:xlink="http://www.w3.org/1999/xlink">
<g><path style="opacity:0.988" fill="#14364A" d="M -0.5,-0.5 C 64.8333,-0.5 130.167,-0.5 195.5,-0.5C 236.014,0.379057 274.347,10.2124 310.5,29C 355.072,55.9296 384.905,94.4296 400,144.5C 412.732,189.785 416.065,235.785 410,282.5C 403.23,338.535 380.063,386.368 340.5,426C 300.42,460.37 253.754,478.036 200.5,479C 133.501,479.5 66.5008,479.667 -0.5,479.5C -0.5,319.5 -0.5,159.5 -0.5,-0.5 Z M 92.5,84.5 C 118.502,84.3334 144.502,84.5 170.5,85C 204.277,84.8565 235.277,93.8565 263.5,112C 291.223,134.591 307.723,163.757 313,199.5C 317.859,229.224 317.525,258.891 312,288.5C 297.733,355.765 256.233,390.931 187.5,394C 155.835,394.5 124.168,394.667 92.5,394.5C 92.5,291.167 92.5,187.833 92.5,84.5 Z"/></g>
<g><path style="opacity:0.987" fill="#14364A" d="M 462.5,-0.5 C 567.167,-0.5 671.833,-0.5 776.5,-0.5C 776.5,27.8333 776.5,56.1667 776.5,84.5C 702.833,84.5 629.167,84.5 555.5,84.5C 555.5,120.167 555.5,155.833 555.5,191.5C 625.167,191.5 694.833,191.5 764.5,191.5C 764.5,221.167 764.5,250.833 764.5,280.5C 694.833,280.5 625.167,280.5 555.5,280.5C 555.5,318.167 555.5,355.833 555.5,393.5C 631.167,393.5 706.833,393.5 782.5,393.5C 782.5,422.167 782.5,450.833 782.5,479.5C 675.833,479.5 569.167,479.5 462.5,479.5C 462.5,319.5 462.5,159.5 462.5,-0.5 Z"/></g>
<g><path style="opacity:0.991" fill="#14364A" d="M 832.5,-0.5 C 863.167,-0.5 893.833,-0.5 924.5,-0.5C 924.5,130.833 924.5,262.167 924.5,393.5C 994.833,393.5 1065.17,393.5 1135.5,393.5C 1135.5,422.167 1135.5,450.833 1135.5,479.5C 1034.5,479.5 933.5,479.5 832.5,479.5C 832.5,319.5 832.5,159.5 832.5,-0.5 Z"/></g>
<g><path style="opacity:0.991" fill="#14364A" d="M 1185.5,-0.5 C 1216.17,-0.5 1246.83,-0.5 1277.5,-0.5C 1277.5,159.5 1277.5,319.5 1277.5,479.5C 1246.83,479.5 1216.17,479.5 1185.5,479.5C 1185.5,319.5 1185.5,159.5 1185.5,-0.5 Z"/></g>
<g><path style="opacity:0.986" fill="#14364A" d="M 1645.5,-0.5 C 1678.5,-0.5 1711.5,-0.5 1744.5,-0.5C 1684.16,159.511 1623.83,319.511 1563.5,479.5C 1562.17,479.5 1560.83,479.5 1559.5,479.5C 1544.83,439.008 1529.67,398.675 1514,358.5C 1512.68,355.594 1512.35,352.594 1513,349.5C 1557.27,232.849 1601.44,116.182 1645.5,-0.5 Z"/></g>
<g><path style="opacity:0.821" fill="#14364A" d="M 1767.5,-0.5 C 1838.5,-0.5 1909.5,-0.5 1980.5,-0.5C 1983.21,21.47 1978.38,41.47 1966,59.5C 1954.92,72.9581 1940.75,81.1248 1923.5,84C 1861.16,84.8333 1798.83,84.6666 1736.5,83.5C 1747.24,55.6186 1757.57,27.6186 1767.5,-0.5 Z"/></g>
<g><path style="opacity:0.991" fill="#14364A" d="M 2030.5,-0.5 C 2094.17,-0.5 2157.83,-0.5 2221.5,-0.5C 2254.37,1.30519 2285.37,10.1385 2314.5,26C 2360.73,55.7811 2383.06,98.4477 2381.5,154C 2381.82,229.603 2346.15,278.769 2274.5,301.5C 2314.41,360.327 2354.08,419.327 2393.5,478.5C 2358.84,479.667 2324.17,479.833 2289.5,479C 2252.04,422.586 2214.71,366.086 2177.5,309.5C 2159.18,308.5 2140.85,308.167 2122.5,308.5C 2122.5,365.5 2122.5,422.5 2122.5,479.5C 2091.83,479.5 2061.17,479.5 2030.5,479.5C 2030.5,319.5 2030.5,159.5 2030.5,-0.5 Z M 2122.5,83.5 C 2151.17,83.3334 2179.84,83.5 2208.5,84C 2229.04,85.5077 2247.37,92.5077 2263.5,105C 2282.77,124.484 2289.27,147.651 2283,174.5C 2276.84,195.324 2263.68,209.824 2243.5,218C 2230.95,222.843 2217.95,225.51 2204.5,226C 2177.17,226.5 2149.84,226.667 2122.5,226.5C 2122.5,178.833 2122.5,131.167 2122.5,83.5 Z"/></g>
<g><path style="opacity:0.988" fill="#14364A" d="M 2385.5,1.5 C 2418.57,0.168058 2451.74,0.168058 2485,1.5C 2522.49,75.813 2560.49,149.813 2599,223.5C 2636.58,149.344 2674.41,75.3437 2712.5,1.5C 2745.5,0.166667 2778.5,0.166667 2811.5,1.5C 2756.25,105.659 2700.75,209.659 2645,313.5C 2644.5,368.499 2644.33,423.499 2644.5,478.5C 2613.83,478.5 2583.17,478.5 2552.5,478.5C 2552.67,423.166 2552.5,367.832 2552,312.5C 2496.47,208.772 2440.97,105.105 2385.5,1.5 Z"/></g>
<g><path style="opacity:0.976" fill="#f580fc" d="M 3265.5,0.5 C 3316.77,-3.28465 3355.93,16.382 3383,59.5C 3401.37,96.6151 3403.37,134.615 3389,173.5C 3361.74,228.383 3317.58,251.549 3256.5,243C 3214.98,233.986 3186.14,209.82 3170,170.5C 3154.99,126.952 3159.99,85.9522 3185,47.5C 3205.56,21.1125 3232.39,5.44579 3265.5,0.5 Z M 3276.5,36.5 C 3316,38.172 3341.84,57.8387 3354,95.5C 3362.57,127.962 3356.57,157.295 3336,183.5C 3312.3,207.382 3284.47,213.882 3252.5,203C 3219.59,186.71 3202.93,160.043 3202.5,123C 3202.96,88.7205 3217.63,62.7205 3246.5,45C 3256.19,40.5815 3266.19,37.7482 3276.5,36.5 Z"/></g>
<g><path style="opacity:0.976" fill="#f580fc" d="M 2938.5,4.5 C 2951.84,4.33344 2965.17,4.5001 2978.5,5C 3017.2,60.2279 3055.03,116.061 3092,172.5C 3092.5,116.501 3092.67,60.501 3092.5,4.5C 3105.5,4.5 3118.5,4.5 3131.5,4.5C 3131.5,82.8333 3131.5,161.167 3131.5,239.5C 3117.83,239.667 3104.16,239.5 3090.5,239C 3052.14,185.109 3014.64,130.609 2978,75.5C 2977.5,130.166 2977.33,184.832 2977.5,239.5C 2964.5,239.5 2951.5,239.5 2938.5,239.5C 2938.5,161.167 2938.5,82.8333 2938.5,4.5 Z"/></g>
<g><path style="opacity:0.977" fill="#f580fc" d="M 3742.5,4.5 C 3742.5,5.5 3742.5,6.5 3742.5,7.5C 3718.9,84.5519 3695.9,161.885 3673.5,239.5C 3657.17,239.5 3640.83,239.5 3624.5,239.5C 3606.85,181.887 3589.35,124.221 3572,66.5C 3555.53,124.4 3538.37,182.066 3520.5,239.5C 3504.15,239.833 3487.82,239.499 3471.5,238.5C 3447.87,160.662 3424.87,82.662 3402.5,4.5C 3417.08,4.17626 3431.58,4.50959 3446,5.5C 3463.6,65.2344 3480.27,125.234 3496,185.5C 3514,125.5 3532,65.5 3550,5.5C 3564.76,4.50937 3579.59,4.17604 3594.5,4.5C 3612.04,64.3122 3630.04,123.979 3648.5,183.5C 3664.85,124.083 3681.52,64.75 3698.5,5.5C 3713.15,4.50069 3727.82,4.16735 3742.5,4.5 Z"/></g>
<g><path style="opacity:0.984" fill="#f580fc" d="M 1327.5,170.5 C 1345.5,170.333 1363.5,170.5 1381.5,171C 1409.17,174.927 1427.67,190.093 1437,216.5C 1470.42,303.995 1503.25,391.661 1535.5,479.5C 1504.83,479.833 1474.16,479.5 1443.5,478.5C 1404.23,376.031 1365.57,273.364 1327.5,170.5 Z"/></g>
<g><path style="opacity:0.806" fill="#14364A" d="M 1694.5,194.5 C 1763.83,194.5 1833.17,194.5 1902.5,194.5C 1904.01,212.02 1901.84,229.02 1896,245.5C 1885.69,266.081 1869.19,278.581 1846.5,283C 1784.5,283.667 1722.5,283.667 1660.5,283C 1671.93,253.527 1683.27,224.027 1694.5,194.5 Z"/></g>
<g><path style="opacity:0.787" fill="#14364A" d="M 1618.5,393.5 C 1687.83,393.5 1757.17,393.5 1826.5,393.5C 1830.08,420.587 1822.42,443.754 1803.5,463C 1792.23,472.427 1779.23,477.76 1764.5,479C 1705.5,479.5 1646.5,479.667 1587.5,479.5C 1597.82,450.849 1608.16,422.182 1618.5,393.5 Z"/></g>
<g><path style="opacity:0.962" fill="#14364A" d="M 688.5,597.5 C 696.5,597.5 704.5,597.5 712.5,597.5C 712.333,651.501 712.5,705.501 713,759.5C 713.463,765.647 714.629,771.647 716.5,777.5C 708.521,778.665 700.521,778.832 692.5,778C 690.854,771.963 689.687,765.797 689,759.5C 678.835,775.168 664.335,782.835 645.5,782.5C 617.793,781.638 599.626,767.971 591,741.5C 584.772,719.029 586.772,697.362 597,676.5C 614.172,651.331 637.339,643.498 666.5,653C 675.564,657.397 682.731,663.897 688,672.5C 688.5,647.502 688.667,622.502 688.5,597.5 Z M 643.5,671.5 C 668.573,670.733 683.407,682.733 688,707.5C 690.7,727.248 684.2,743.081 668.5,755C 649.197,764.257 633.03,760.423 620,743.5C 610.383,725.677 610.05,707.677 619,689.5C 624.839,680.18 633.006,674.18 643.5,671.5 Z"/></g>
<g><path style="opacity:0.959" fill="#14364A" d="M -0.5,598.5 C 7.5,598.5 15.5,598.5 23.5,598.5C 23.3334,623.836 23.5,649.169 24,674.5C 37.0131,655.084 55.1797,647.251 78.5,651C 101.592,656.759 116.092,671.259 122,694.5C 128.238,719.408 124.238,742.408 110,763.5C 92.0885,783.02 70.5885,788.52 45.5,780C 36.4361,775.603 29.2694,769.103 24,760.5C 23.5004,767.158 23.3337,773.825 23.5,780.5C 15.5,780.5 7.5,780.5 -0.5,780.5C -0.5,719.833 -0.5,659.167 -0.5,598.5 Z M 58.5,672.5 C 85.6616,675.002 99.3283,690.002 99.5,717.5C 99.9398,737.81 90.9398,751.977 72.5,760C 41.4194,762.938 25.0861,748.605 23.5,717C 23.9503,693.077 35.6169,678.243 58.5,672.5 Z"/></g>
<g><path style="opacity:0.969" fill="#14364A" d="M 520.5,648.5 C 547.981,648.302 564.148,661.635 569,688.5C 569.5,718.498 569.667,748.498 569.5,778.5C 561.5,778.5 553.5,778.5 545.5,778.5C 545.667,752.498 545.5,726.498 545,700.5C 542.008,678.157 529.508,668.991 507.5,673C 495.837,677.33 488.337,685.497 485,697.5C 483.535,724.449 483.035,751.449 483.5,778.5C 475.5,778.5 467.5,778.5 459.5,778.5C 459.5,736.5 459.5,694.5 459.5,652.5C 467.167,652.5 474.833,652.5 482.5,652.5C 482.334,659.175 482.5,665.842 483,672.5C 491.482,658.179 503.982,650.179 520.5,648.5 Z"/></g>
<g><path style="opacity:0.966" fill="#14364A" d="M 785.5,648.5 C 822.057,647.9 843.223,665.567 849,701.5C 849.5,708.492 849.666,715.492 849.5,722.5C 817.167,722.5 784.833,722.5 752.5,722.5C 755.025,748.526 769.359,761.359 795.5,761C 811.61,758.4 822.943,749.567 829.5,734.5C 836.087,737.362 842.754,740.029 849.5,742.5C 850.614,743.723 850.781,745.056 850,746.5C 835.385,774.559 812.219,786.393 780.5,782C 746.149,773.851 728.482,752.018 727.5,716.5C 728.693,677.997 748.026,655.33 785.5,648.5 Z M 786.5,669.5 C 808.605,669.285 821.605,679.952 825.5,701.5C 801.509,702.5 777.509,702.833 753.5,702.5C 757.255,684.079 768.255,673.079 786.5,669.5 Z"/></g>
<g><path style="opacity:0.959" fill="#14364A" d="M 914.5,648.5 C 929.568,647.608 943.235,651.442 955.5,660C 962.438,666.708 966.604,674.874 968,684.5C 968.333,708.167 968.667,731.833 969,755.5C 969.587,763.266 970.754,770.933 972.5,778.5C 964.472,778.831 956.472,778.498 948.5,777.5C 947.252,771.852 946.086,766.185 945,760.5C 932.526,778.477 915.359,785.643 893.5,782C 868.695,776.56 858.862,761.393 864,736.5C 870.137,723.491 880.304,715.325 894.5,712C 907.505,708.999 920.505,705.999 933.5,703C 943.981,698.87 946.814,691.703 942,681.5C 934.076,670.747 923.576,666.913 910.5,670C 899.599,673.901 892.432,681.401 889,692.5C 881.405,689.858 873.905,687.025 866.5,684C 874.989,662.011 890.989,650.178 914.5,648.5 Z M 942.5,717.5 C 947.073,739.824 938.406,754.991 916.5,763C 906.508,765.214 898.008,762.714 891,755.5C 886.655,746.527 888.489,739.027 896.5,733C 899.167,731.667 901.833,730.333 904.5,729C 914.798,726.207 925.131,723.54 935.5,721C 938.069,720.102 940.402,718.935 942.5,717.5 Z"/></g>
<g><path style="opacity:0.963" fill="#14364A" d="M 1154.5,648.5 C 1184.92,647.778 1206.42,661.111 1219,688.5C 1227.13,713.137 1224.47,736.47 1211,758.5C 1192.76,779.358 1169.93,786.858 1142.5,781C 1116.18,773.676 1100.68,756.509 1096,729.5C 1091.58,703.42 1098.75,681.254 1117.5,663C 1128.56,654.705 1140.9,649.872 1154.5,648.5 Z M 1153.5,671.5 C 1182.47,671.971 1197.47,686.804 1198.5,716C 1198.57,733.202 1191.57,746.535 1177.5,756C 1147.81,765.906 1128.98,755.74 1121,725.5C 1117.96,707.135 1123.12,691.635 1136.5,679C 1141.78,675.356 1147.44,672.856 1153.5,671.5 Z"/></g>
<g><path style="opacity:0.959" fill="#14364A" d="M 1426.5,648.5 C 1432.56,648.371 1438.4,649.371 1444,651.5C 1444.5,660.16 1444.67,668.827 1444.5,677.5C 1419.01,670.159 1402.51,679.159 1395,704.5C 1394.15,708.469 1393.48,712.469 1393,716.5C 1392.5,737.164 1392.33,757.831 1392.5,778.5C 1384.5,778.5 1376.5,778.5 1368.5,778.5C 1368.5,736.5 1368.5,694.5 1368.5,652.5C 1376.5,652.5 1384.5,652.5 1392.5,652.5C 1392.33,659.508 1392.5,666.508 1393,673.5C 1400.09,659.566 1411.25,651.233 1426.5,648.5 Z"/></g>
<g><path style="opacity:0.958" fill="#14364A" d="M 368.5,650.5 C 390.666,647.405 409.499,653.739 425,669.5C 436.536,685.988 441.036,704.321 438.5,724.5C 406.167,724.5 373.833,724.5 341.5,724.5C 344.037,748.204 357.204,760.87 381,762.5C 398.256,761.556 410.256,753.223 417,737.5C 417.725,736.941 418.558,736.608 419.5,736.5C 426.648,739.047 433.648,741.881 440.5,745C 429.2,770.75 409.367,783.917 381,784.5C 346.125,782.621 325.125,764.621 318,730.5C 313.761,703.911 321.261,681.411 340.5,663C 349.071,656.876 358.405,652.709 368.5,650.5 Z M 371.5,671.5 C 396.245,668.615 410.579,679.282 414.5,703.5C 390.491,703.833 366.491,703.5 342.5,702.5C 346.418,686.588 356.084,676.255 371.5,671.5 Z"/></g>
<g><path style="opacity:0.961" fill="#14364A" d="M 973.5,652.5 C 982.418,652.183 991.251,652.516 1000,653.5C 1011.86,685.423 1023.53,717.423 1035,749.5C 1046.67,717.5 1058.33,685.5 1070,653.5C 1078.41,652.517 1086.91,652.183 1095.5,652.5C 1080.33,694.508 1064.66,736.342 1048.5,778C 1039.15,778.832 1029.82,778.665 1020.5,777.5C 1004.54,735.922 988.875,694.255 973.5,652.5 Z"/></g>
<g><path style="opacity:0.957" fill="#14364A" d="M 1236.5,652.5 C 1244.5,652.5 1252.5,652.5 1260.5,652.5C 1260.33,678.169 1260.5,703.835 1261,729.5C 1263.47,754.132 1276.63,763.632 1300.5,758C 1309.6,753.004 1315.76,745.504 1319,735.5C 1320.47,707.884 1320.97,680.217 1320.5,652.5C 1328.83,652.5 1337.17,652.5 1345.5,652.5C 1345.33,688.835 1345.5,725.168 1346,761.5C 1346.53,767.169 1347.7,772.669 1349.5,778C 1341.17,778.5 1332.84,778.666 1324.5,778.5C 1323.48,772.873 1322.64,767.207 1322,761.5C 1315.2,772.618 1305.37,779.451 1292.5,782C 1260.21,786.354 1241.71,772.521 1237,740.5C 1236.5,711.169 1236.33,681.835 1236.5,652.5 Z"/></g>
<g><path style="opacity:0.958" fill="#14364A" d="M 182.5,829.5 C 174.5,829.5 166.5,829.5 158.5,829.5C 163.764,814.042 169.431,798.709 175.5,783.5C 159.15,740.14 142.816,696.807 126.5,653.5C 135.418,653.183 144.251,653.516 153,654.5C 165.01,686.533 177.01,718.533 189,750.5C 200.555,718.391 212.389,686.391 224.5,654.5C 233.167,653.167 241.833,653.167 250.5,654.5C 227.825,712.862 205.159,771.195 182.5,829.5 Z"/></g>
</svg>
