<?xml version="1.0" encoding="UTF-8"?>
<!DOCTYPE svg PUBLIC "-//W3C//DTD SVG 1.1//EN" "http://www.w3.org/Graphics/SVG/1.1/DTD/svg11.dtd">
<svg xmlns="http://www.w3.org/2000/svg" version="1.1" width="2000px" height="395px" style="shape-rendering:geometricPrecision; text-rendering:geometricPrecision; image-rendering:optimizeQuality; fill-rule:evenodd; clip-rule:evenodd" xmlns:xlink="http://www.w3.org/1999/xlink">
<g><path style="opacity:0.999" fill="#073cf3" d="M -0.5,-0.5 C 666.167,-0.5 1332.83,-0.5 1999.5,-0.5C 1999.5,131.167 1999.5,262.833 1999.5,394.5C 1332.83,394.5 666.167,394.5 -0.5,394.5C -0.5,262.833 -0.5,131.167 -0.5,-0.5 Z"/></g>
<g><path style="opacity:1" fill="#c3d0fb" d="M 408.5,29.5 C 372.142,29.1923 335.809,29.5256 299.5,30.5C 300.263,29.7321 301.263,29.2321 302.5,29C 338.002,28.169 373.336,28.3357 408.5,29.5 Z"/></g>
<g><path style="opacity:1" fill="#fdfdfe" d="M 299.5,30.5 C 335.809,29.5256 372.142,29.1923 408.5,29.5C 410.903,29.393 412.736,30.393 414,32.5C 414.667,139.833 414.667,247.167 414,354.5C 413.602,357.232 412.102,359.065 409.5,360C 377.833,360.667 346.167,360.667 314.5,360C 312.334,358.322 311.001,356.155 310.5,353.5C 310.833,308.162 310.5,262.828 309.5,217.5C 308.702,217.957 308.369,218.624 308.5,219.5C 292.446,263.972 276.612,308.639 261,353.5C 258.736,356.433 255.902,358.6 252.5,360C 232.167,360.667 211.833,360.667 191.5,360C 189.246,358.623 187.08,357.123 185,355.5C 168.773,309.646 152.273,263.979 135.5,218.5C 135.44,217.957 135.107,217.624 134.5,217.5C 133.5,263.495 133.167,309.495 133.5,355.5C 132.953,358.212 131.287,359.712 128.5,360C 97.1667,360.667 65.8333,360.667 34.5,360C 32.2232,358.387 30.7232,356.22 30,353.5C 29.0044,246.419 29.3378,139.419 31,32.5C 32.214,30.9512 33.714,29.7845 35.5,29C 70.1667,28.3333 104.833,28.3333 139.5,29C 143.965,29.566 147.965,31.2327 151.5,34C 154.046,37.59 156.213,41.4234 158,45.5C 179.283,104.021 200.95,162.354 223,220.5C 244.47,161.09 266.137,101.757 288,42.5C 290.012,36.6561 293.846,32.6561 299.5,30.5 Z"/></g>
<g><path style="opacity:1" fill="#fdfdfe" d="M 450.5,28.5 C 479.835,28.3334 509.169,28.5 538.5,29C 541.494,29.4057 543.661,30.9057 545,33.5C 545.667,140.5 545.667,247.5 545,354.5C 544.5,357.667 542.667,359.5 539.5,360C 509.5,360.667 479.5,360.667 449.5,360C 447.185,358.891 445.685,357.057 445,354.5C 444.333,247.833 444.333,141.167 445,34.5C 446.36,31.9774 448.193,29.9774 450.5,28.5 Z"/></g>
<g><path style="opacity:1" fill="#fdfefe" d="M 581.5,28.5 C 610.835,28.3334 640.169,28.5 669.5,29C 672.573,29.7386 674.74,31.5719 676,34.5C 676.5,114.166 676.667,193.833 676.5,273.5C 705.563,273.024 734.563,273.524 763.5,275C 764.333,275.833 765.167,276.667 766,277.5C 766.667,303.167 766.667,328.833 766,354.5C 765.167,357.333 763.333,359.167 760.5,360C 700.5,360.667 640.5,360.667 580.5,360C 578.448,359.07 576.948,357.57 576,355.5C 575.333,248.5 575.333,141.5 576,34.5C 577.36,31.9774 579.193,29.9774 581.5,28.5 Z"/></g>
<g><path style="opacity:1" fill="#fdfdfe" d="M 889.5,36.5 C 889.167,71.1731 889.5,105.84 890.5,140.5C 891.107,140.376 891.44,140.043 891.5,139.5C 909.909,105.686 928.075,71.6858 946,37.5C 949.098,33.065 953.264,30.2317 958.5,29C 993.167,28.3333 1027.83,28.3333 1062.5,29C 1064.74,29.977 1067.07,30.477 1069.5,30.5C 1068.64,33.911 1067.47,37.2444 1066,40.5C 1036.33,87.1667 1006.67,133.833 977,180.5C 975.596,182.639 974.763,184.972 974.5,187.5C 975.293,191.134 976.793,194.468 979,197.5C 1006.18,241.195 1033.34,284.861 1060.5,328.5C 1061.19,329.774 1062.02,329.774 1063,328.5C 1063.91,323.536 1064.41,318.536 1064.5,313.5C 1074.55,239.801 1084.89,166.134 1095.5,92.5C 1097.22,89.1552 1097.88,85.4885 1097.5,81.5C 1097.5,80.5 1097.5,79.5 1097.5,78.5C 1099.22,75.1552 1099.88,71.4885 1099.5,67.5C 1099.5,66.5 1099.5,65.5 1099.5,64.5C 1101.22,61.1552 1101.88,57.4885 1101.5,53.5C 1102.11,48.1877 1102.61,42.8544 1103,37.5C 1104.44,33.7251 1106.94,30.8917 1110.5,29C 1143.17,28.3333 1175.83,28.3333 1208.5,29C 1233.64,28.7792 1258.64,30.4458 1283.5,34C 1316.69,41.7408 1338.03,61.9075 1347.5,94.5C 1347.41,97.1522 1348.08,99.4855 1349.5,101.5C 1354.91,136.188 1346.41,167.188 1324,194.5C 1311.67,209.084 1296.84,220.417 1279.5,228.5C 1279.17,229.167 1278.83,229.833 1278.5,230.5C 1297.14,270.437 1316.3,310.103 1336,349.5C 1338.7,354.01 1337.87,357.51 1333.5,360C 1296.08,360.987 1258.75,360.654 1221.5,359C 1219.29,357.127 1217.46,354.96 1216,352.5C 1205.15,320.107 1194.15,287.773 1183,255.5C 1181.75,252.084 1179.58,249.417 1176.5,247.5C 1175.2,248.09 1174.37,249.09 1174,250.5C 1168.87,284.078 1164.2,317.745 1160,351.5C 1159.33,355.499 1157.17,358.332 1153.5,360C 1087.83,360.667 1022.17,360.667 956.5,360C 953.705,358.207 951.205,356.04 949,353.5C 930.33,315.492 911.163,277.825 891.5,240.5C 891.217,239.711 890.717,239.044 890,238.5C 889.5,276.499 889.333,314.499 889.5,352.5C 889.358,355.617 888.024,358.117 885.5,360C 854.833,360.667 824.167,360.667 793.5,360C 792.584,359.626 791.75,359.126 791,358.5C 789.837,303.915 789.337,249.248 789.5,194.5C 789.667,140.5 789.833,86.5 790,32.5C 791.214,30.9512 792.714,29.7845 794.5,29C 824.167,28.3333 853.833,28.3333 883.5,29C 887.531,29.9029 889.531,32.4029 889.5,36.5 Z"/></g>
<g><path style="opacity:1" fill="#fdfdfe" d="M 1527.5,218.5 C 1529.22,215.155 1529.88,211.489 1529.5,207.5C 1529.5,206.5 1529.5,205.5 1529.5,204.5C 1531.22,201.155 1531.88,197.489 1531.5,193.5C 1531.5,192.5 1531.5,191.5 1531.5,190.5C 1533.22,187.155 1533.88,183.489 1533.5,179.5C 1533.5,178.5 1533.5,177.5 1533.5,176.5C 1535.22,173.155 1535.88,169.489 1535.5,165.5C 1539.13,136.439 1543.13,107.439 1547.5,78.5C 1549.22,75.1552 1549.88,71.4885 1549.5,67.5C 1549.5,66.5 1549.5,65.5 1549.5,64.5C 1551.22,61.1552 1551.88,57.4885 1551.5,53.5C 1551.91,47.4485 1552.75,41.4485 1554,35.5C 1555.5,32.6667 1557.67,30.5 1560.5,29C 1589.83,28.3333 1619.17,28.3333 1648.5,29C 1650.08,29.7065 1651.58,30.5399 1653,31.5C 1653.67,36.5 1653.67,41.5 1653,46.5C 1643.4,112.853 1633.73,179.186 1624,245.5C 1612.93,313.571 1573.43,353.404 1505.5,365C 1474.21,370.266 1443.55,367.933 1413.5,358C 1379.61,345.083 1360.45,320.583 1356,284.5C 1355.33,272.167 1355.33,259.833 1356,247.5C 1364.54,177.04 1374.21,106.707 1385,36.5C 1386.17,32.6667 1388.67,30.1667 1392.5,29C 1421.5,28.3333 1450.5,28.3333 1479.5,29C 1483.83,30.1612 1485.83,32.9946 1485.5,37.5C 1475.99,106.24 1466.16,174.906 1456,243.5C 1453.03,271.53 1465.53,283.697 1493.5,280C 1511.8,275.351 1521.97,263.518 1524,244.5C 1525.5,235.863 1526.66,227.196 1527.5,218.5 Z"/></g>
<g><path style="opacity:1" fill="#fdfdfe" d="M 1927.5,327.5 C 1926.48,330.974 1925.81,334.64 1925.5,338.5C 1925.42,343.952 1924.59,349.286 1923,354.5C 1921.74,357.428 1919.57,359.261 1916.5,360C 1886.41,360.984 1856.41,360.651 1826.5,359C 1823.96,356.795 1821.79,354.295 1820,351.5C 1799.87,303.237 1779.2,255.237 1758,207.5C 1753.52,231.355 1750.02,255.355 1747.5,279.5C 1746.42,282.627 1745.75,285.96 1745.5,289.5C 1742.88,310.508 1740.04,331.508 1737,352.5C 1736.48,355.034 1735.32,357.2 1733.5,359C 1702.23,360.644 1670.89,360.977 1639.5,360C 1638.3,359.097 1637.47,357.931 1637,356.5C 1636.37,352.129 1636.54,347.796 1637.5,343.5C 1639.22,340.155 1639.88,336.489 1639.5,332.5C 1639.5,331.5 1639.5,330.5 1639.5,329.5C 1641.22,326.155 1641.88,322.489 1641.5,318.5C 1654.52,224.493 1667.69,130.493 1681,36.5C 1681.88,33.8976 1683.38,31.7309 1685.5,30C 1715.41,28.3495 1745.41,28.0161 1775.5,29C 1779.71,30.187 1782.88,32.687 1785,36.5C 1804.97,85.0947 1825.47,133.428 1846.5,181.5C 1853.96,132.144 1861.46,82.8104 1869,33.5C 1870.54,31.6217 1872.38,30.1217 1874.5,29C 1904.17,28.3333 1933.83,28.3333 1963.5,29C 1966.76,30.2501 1968.43,32.5834 1968.5,36C 1954.56,133.133 1940.89,230.3 1927.5,327.5 Z"/></g>
<g><path style="opacity:0.996" fill="#b9c4fb" d="M 1101.5,53.5 C 1101.88,57.4885 1101.22,61.1552 1099.5,64.5C 1099.81,60.6403 1100.48,56.9736 1101.5,53.5 Z"/></g>
<g><path style="opacity:0.988" fill="#b8c3fb" d="M 1551.5,53.5 C 1551.88,57.4885 1551.22,61.1552 1549.5,64.5C 1549.81,60.6403 1550.48,56.9736 1551.5,53.5 Z"/></g>
<g><path style="opacity:0.966" fill="#3b66f5" d="M 889.5,36.5 C 890.167,70.8333 890.833,105.167 891.5,139.5C 891.44,140.043 891.107,140.376 890.5,140.5C 889.5,105.84 889.167,71.1731 889.5,36.5 Z"/></g>
<g><path style="opacity:0.992" fill="#b7c2fb" d="M 1099.5,67.5 C 1099.88,71.4885 1099.22,75.1552 1097.5,78.5C 1097.81,74.6403 1098.48,70.9736 1099.5,67.5 Z"/></g>
<g><path style="opacity:0.988" fill="#b9c3fb" d="M 1549.5,67.5 C 1549.88,71.4885 1549.22,75.1552 1547.5,78.5C 1547.81,74.6403 1548.48,70.9736 1549.5,67.5 Z"/></g>
<g><path style="opacity:0.988" fill="#b5c0fb" d="M 1097.5,81.5 C 1097.88,85.4885 1097.22,89.1552 1095.5,92.5C 1095.81,88.6403 1096.48,84.9736 1097.5,81.5 Z"/></g>
<g><path style="opacity:0.992" fill="#bac4fb" d="M 1347.5,94.5 C 1348.92,96.5145 1349.59,98.8478 1349.5,101.5C 1348.08,99.4855 1347.41,97.1522 1347.5,94.5 Z"/></g>
<g><path style="opacity:1" fill="#0d3ff3" d="M 1191.5,166.5 C 1190.08,165.549 1188.41,165.216 1186.5,165.5C 1186.5,164.5 1186.5,163.5 1186.5,162.5C 1188.5,146.839 1190.5,131.173 1192.5,115.5C 1205.87,115.168 1219.2,115.668 1232.5,117C 1244.32,122.471 1248.82,131.637 1246,144.5C 1243.7,151.139 1239.53,156.306 1233.5,160C 1228.74,162.587 1223.74,164.587 1218.5,166C 1209.51,166.5 1200.51,166.666 1191.5,166.5 Z"/></g>
<g><path style="opacity:0.984" fill="#748ff8" d="M 1186.5,162.5 C 1186.5,163.5 1186.5,164.5 1186.5,165.5C 1188.41,165.216 1190.08,165.549 1191.5,166.5C 1189.5,166.5 1187.5,166.5 1185.5,166.5C 1185.23,164.901 1185.57,163.568 1186.5,162.5 Z"/></g>
<g><path style="opacity:0.996" fill="#b9c4fb" d="M 1535.5,165.5 C 1535.88,169.489 1535.22,173.155 1533.5,176.5C 1533.81,172.64 1534.48,168.974 1535.5,165.5 Z"/></g>
<g><path style="opacity:0.996" fill="#b9c4fb" d="M 1533.5,179.5 C 1533.88,183.489 1533.22,187.155 1531.5,190.5C 1531.81,186.64 1532.48,182.974 1533.5,179.5 Z"/></g>
<g><path style="opacity:0.992" fill="#b6c1fb" d="M 1531.5,193.5 C 1531.88,197.489 1531.22,201.155 1529.5,204.5C 1529.81,200.64 1530.48,196.974 1531.5,193.5 Z"/></g>
<g><path style="opacity:0.98" fill="#b4bffb" d="M 1529.5,207.5 C 1529.88,211.489 1529.22,215.155 1527.5,218.5C 1527.81,214.64 1528.48,210.974 1529.5,207.5 Z"/></g>
<g><path style="opacity:0.945" fill="#8aa4f8" d="M 135.5,218.5 C 134.833,264.167 134.167,309.833 133.5,355.5C 133.167,309.495 133.5,263.495 134.5,217.5C 135.107,217.624 135.44,217.957 135.5,218.5 Z"/></g>
<g><path style="opacity:0.976" fill="#2757f4" d="M 310.5,353.5 C 309.833,308.833 309.167,264.167 308.5,219.5C 308.369,218.624 308.702,217.957 309.5,217.5C 310.5,262.828 310.833,308.162 310.5,353.5 Z"/></g>
<g><path style="opacity:0.965" fill="#3b66f5" d="M 891.5,240.5 C 890.833,277.833 890.167,315.167 889.5,352.5C 889.333,314.499 889.5,276.499 890,238.5C 890.717,239.044 891.217,239.711 891.5,240.5 Z"/></g>
<g><path style="opacity:0.996" fill="#5b6ff6" d="M 1747.5,279.5 C 1747.66,282.187 1747.5,284.854 1747,287.5C 1746.72,288.416 1746.22,289.082 1745.5,289.5C 1745.75,285.96 1746.42,282.627 1747.5,279.5 Z"/></g>
<g><path style="opacity:0.996" fill="#b9c4fb" d="M 1641.5,318.5 C 1641.88,322.489 1641.22,326.155 1639.5,329.5C 1639.81,325.64 1640.48,321.974 1641.5,318.5 Z"/></g>
<g><path style="opacity:0.992" fill="#c2cbfc" d="M 1064.5,313.5 C 1064.41,318.536 1063.91,323.536 1063,328.5C 1062.02,329.774 1061.19,329.774 1060.5,328.5C 1061.12,328.389 1061.62,328.056 1062,327.5C 1062.52,322.638 1063.36,317.972 1064.5,313.5 Z"/></g>
<g><path style="opacity:0.988" fill="#5a71f6" d="M 1927.5,327.5 C 1927.88,331.489 1927.22,335.155 1925.5,338.5C 1925.81,334.64 1926.48,330.974 1927.5,327.5 Z"/></g>
<g><path style="opacity:0.988" fill="#b9c4fb" d="M 1639.5,332.5 C 1639.88,336.489 1639.22,340.155 1637.5,343.5C 1637.81,339.64 1638.48,335.974 1639.5,332.5 Z"/></g>
</svg>
