<?xml version="1.0" encoding="UTF-8"?>
<!DOCTYPE svg PUBLIC "-//W3C//DTD SVG 1.1//EN" "http://www.w3.org/Graphics/SVG/1.1/DTD/svg11.dtd">
<svg xmlns="http://www.w3.org/2000/svg" version="1.1" width="1883px" height="606px" style="shape-rendering:geometricPrecision; text-rendering:geometricPrecision; image-rendering:optimizeQuality; fill-rule:evenodd; clip-rule:evenodd" xmlns:xlink="http://www.w3.org/1999/xlink">
<g><path style="opacity:0.819" fill="#7e6b36" d="M 495.5,-0.5 C 502.833,-0.5 510.167,-0.5 517.5,-0.5C 554.718,7.22026 576.552,29.8869 583,67.5C 585.278,104.123 570.112,130.623 537.5,147C 501.896,159.949 471.396,152.449 446,124.5C 424.795,93.6054 424.128,62.2721 444,30.5C 457.11,13.3641 474.277,3.03081 495.5,-0.5 Z M 496.5,4.5 C 538.564,2.92988 565.398,22.2632 577,62.5C 581.474,98.7225 567.641,125.223 535.5,142C 498.053,155.183 467.887,145.683 445,113.5C 427.247,78.1796 432.747,47.0129 461.5,20C 472.034,12.0618 483.701,6.89511 496.5,4.5 Z"/></g>
<g><path style="opacity:0.992" fill="#97012e" d="M 422.5,423.5 C 422.333,483.501 422.5,543.501 423,603.5C 423.717,604.044 424.217,604.711 424.5,605.5C 370.167,605.5 315.833,605.5 261.5,605.5C 247.045,603.685 235.212,597.018 226,585.5C 220.748,577.332 215.748,568.999 211,560.5C 163.667,462.5 116.333,364.5 69,266.5C 63.8335,257.01 57.3335,248.51 49.5,241C 47.1123,239.139 44.4456,237.806 41.5,237C 27.4255,236.07 13.4255,234.903 -0.5,233.5C -0.5,219.167 -0.5,204.833 -0.5,190.5C 56.4295,189.338 113.43,189.171 170.5,190C 188.832,191.7 202.332,200.534 211,216.5C 246.568,299.638 283.235,382.304 321,464.5C 327.4,478.975 335.067,492.642 344,505.5C 348.244,510.415 353.077,514.581 358.5,518C 364.899,519.302 370.232,517.469 374.5,512.5C 382.487,503.869 388.987,494.202 394,483.5C 403.275,463.288 412.775,443.288 422.5,423.5 Z"/></g>
<g><path style="opacity:0.948" fill="#7f6a37" d="M 578.5,189.5 C 579.122,190.627 579.955,191.627 581,192.5C 581.667,193.833 581.667,195.167 581,196.5C 572.875,199.56 565.541,203.893 559,209.5C 554.414,215.007 551.747,221.341 551,228.5C 550.168,316.668 550.334,404.668 551.5,492.5C 551.667,529.502 551.5,566.502 551,603.5C 550.283,604.044 549.783,604.711 549.5,605.5C 507.833,605.5 466.167,605.5 424.5,605.5C 424.217,604.711 423.717,604.044 423,603.5C 422.5,543.501 422.333,483.501 422.5,423.5C 422.333,358.832 422.5,294.166 423,229.5C 425.816,205.489 439.316,192.322 463.5,190C 501.832,189.5 540.165,189.333 578.5,189.5 Z"/></g>
<g><path style="opacity:0.99" fill="#97012e" d="M 578.5,189.5 C 591.837,189.333 605.171,189.5 618.5,190C 640.551,192.385 653.051,204.552 656,226.5C 656.633,240.104 654.966,253.438 651,266.5C 623.023,344.12 589.856,419.454 551.5,492.5C 550.334,404.668 550.168,316.668 551,228.5C 551.747,221.341 554.414,215.007 559,209.5C 565.541,203.893 572.875,199.56 581,196.5C 581.667,195.167 581.667,193.833 581,192.5C 579.955,191.627 579.122,190.627 578.5,189.5 Z"/></g>
<g><path style="opacity:1" fill="#beb399" d="M 466.5,194.5 C 502.998,193.336 539.664,193.169 576.5,194C 575.473,194.513 574.473,195.013 573.5,195.5C 538.004,194.502 502.337,194.168 466.5,194.5 Z"/></g>
<g><path style="opacity:1" fill="#fefefe" d="M 466.5,194.5 C 502.337,194.168 538.004,194.502 573.5,195.5C 559.551,200.951 550.718,210.951 547,225.5C 546.5,350.5 546.333,475.5 546.5,600.5C 506.833,600.5 467.167,600.5 427.5,600.5C 427.5,477.833 427.5,355.167 427.5,232.5C 429.289,208.379 442.289,195.712 466.5,194.5 Z"/></g>
<g><path style="opacity:1" fill="#beb49a" d="M 427.5,232.5 C 427.5,355.167 427.5,477.833 427.5,600.5C 467.167,600.5 506.833,600.5 546.5,600.5C 506.67,601.499 466.67,601.832 426.5,601.5C 426.167,478.332 426.5,355.332 427.5,232.5 Z"/></g>
<g><path style="opacity:0.961" fill="#000000" d="M 1561.5,250.5 C 1566.94,249.375 1570.44,251.375 1572,256.5C 1598.72,320.948 1625.72,385.282 1653,449.5C 1656.78,458.276 1662.94,464.776 1671.5,469C 1675.75,470.314 1680.09,471.147 1684.5,471.5C 1684.5,474.167 1684.5,476.833 1684.5,479.5C 1654.83,479.5 1625.17,479.5 1595.5,479.5C 1595.5,476.833 1595.5,474.167 1595.5,471.5C 1616.86,471.429 1623.03,461.762 1614,442.5C 1608.83,430.167 1603.67,417.833 1598.5,405.5C 1570.17,404.167 1541.83,404.167 1513.5,405.5C 1507.67,419.167 1501.83,432.833 1496,446.5C 1489.87,459.396 1493.7,467.229 1507.5,470C 1511.47,470.828 1515.47,471.328 1519.5,471.5C 1519.77,474.119 1519.44,476.619 1518.5,479C 1494.84,479.5 1471.17,479.667 1447.5,479.5C 1447.5,476.833 1447.5,474.167 1447.5,471.5C 1453.51,470.746 1459.18,468.913 1464.5,466C 1469.1,461.397 1472.94,456.23 1476,450.5C 1505.19,384.096 1533.69,317.429 1561.5,250.5 Z M 1556.5,305.5 C 1569.07,333.859 1581.07,362.525 1592.5,391.5C 1568.16,391.667 1543.83,391.5 1519.5,391C 1531.98,362.548 1544.31,334.048 1556.5,305.5 Z"/></g>
<g><path style="opacity:0.958" fill="#000000" d="M 1882.5,425.5 C 1882.5,426.5 1882.5,427.5 1882.5,428.5C 1854.55,475.567 1813.55,493.067 1759.5,481C 1721.7,469.868 1697.2,445.368 1686,407.5C 1674.93,364.901 1682.26,325.901 1708,290.5C 1739.95,255.073 1779.12,243.24 1825.5,255C 1834.52,258.513 1843.52,262.013 1852.5,265.5C 1859.76,263.401 1864.09,258.568 1865.5,251C 1867.81,250.503 1870.14,250.337 1872.5,250.5C 1874.39,276.15 1876.05,301.816 1877.5,327.5C 1875.17,327.5 1872.83,327.5 1870.5,327.5C 1855.34,273.923 1821.01,254.756 1767.5,270C 1747.68,279.796 1734.51,295.296 1728,316.5C 1719.66,345.842 1718.32,375.508 1724,405.5C 1737.4,451.857 1768.23,472.357 1816.5,467C 1830.07,464.547 1842.07,458.88 1852.5,450C 1860.92,441.588 1868.58,432.588 1875.5,423C 1878.21,422.683 1880.54,423.516 1882.5,425.5 Z"/></g>
<g><path style="opacity:0.96" fill="#000000" d="M 684.5,255.5 C 715.167,255.5 745.833,255.5 776.5,255.5C 776.5,258.167 776.5,260.833 776.5,263.5C 768.085,263.143 760.585,265.476 754,270.5C 751.083,274.993 750.75,279.659 753,284.5C 773.115,333.398 793.782,382.065 815,430.5C 833.333,385.5 851.667,340.5 870,295.5C 879.19,275.493 872.69,264.826 850.5,263.5C 850.5,260.833 850.5,258.167 850.5,255.5C 873.833,255.5 897.167,255.5 920.5,255.5C 920.5,258.167 920.5,260.833 920.5,263.5C 907.695,265.153 898.529,271.82 893,283.5C 865.39,349.719 838.057,416.053 811,482.5C 808.275,484.758 805.275,485.091 802,483.5C 772.217,413.933 741.883,344.599 711,275.5C 704.098,267.3 695.264,263.3 684.5,263.5C 684.5,260.833 684.5,258.167 684.5,255.5 Z"/></g>
<g><path style="opacity:0.972" fill="#000000" d="M 937.5,255.5 C 969.833,255.5 1002.17,255.5 1034.5,255.5C 1034.5,258.167 1034.5,260.833 1034.5,263.5C 1026.98,262.927 1019.64,263.76 1012.5,266C 1007.74,268.422 1004.91,272.255 1004,277.5C 1002.86,307.804 1002.36,338.138 1002.5,368.5C 1002.36,398.533 1002.86,428.533 1004,458.5C 1005.88,464.711 1010.05,468.544 1016.5,470C 1022.42,471.304 1028.42,471.804 1034.5,471.5C 1034.5,474.167 1034.5,476.833 1034.5,479.5C 1002.17,479.5 969.833,479.5 937.5,479.5C 937.5,476.833 937.5,474.167 937.5,471.5C 946.896,472.72 955.562,470.887 963.5,466C 967.254,460.831 969.087,454.998 969,448.5C 969.167,421.167 969.333,393.833 969.5,366.5C 969.634,336.474 969.134,306.474 968,276.5C 965.509,269.154 960.343,264.987 952.5,264C 947.511,263.501 942.511,263.334 937.5,263.5C 937.5,260.833 937.5,258.167 937.5,255.5 Z"/></g>
<g><path style="opacity:0.962" fill="#000000" d="M 1048.5,255.5 C 1069.17,255.333 1089.84,255.5 1110.5,256C 1155,310.5 1199.5,365 1244,419.5C 1244.96,372.141 1244.63,324.808 1243,277.5C 1241.7,271.531 1238.2,267.365 1232.5,265C 1225.91,263.671 1219.24,263.171 1212.5,263.5C 1212.5,260.833 1212.5,258.167 1212.5,255.5C 1238.83,255.5 1265.17,255.5 1291.5,255.5C 1291.5,258.167 1291.5,260.833 1291.5,263.5C 1283.49,262.708 1275.82,263.875 1268.5,267C 1263.31,271.232 1260.81,276.732 1261,283.5C 1260.5,349.832 1260.33,416.166 1260.5,482.5C 1256.4,483.231 1252.9,482.231 1250,479.5C 1203,421.833 1156,364.167 1109,306.5C 1108.33,355.5 1108.33,404.5 1109,453.5C 1109.33,464.161 1114.83,469.994 1125.5,471C 1130.15,471.499 1134.82,471.666 1139.5,471.5C 1139.5,474.167 1139.5,476.833 1139.5,479.5C 1113.17,479.5 1086.83,479.5 1060.5,479.5C 1060.5,476.833 1060.5,474.167 1060.5,471.5C 1068.5,472.218 1076.17,471.051 1083.5,468C 1088.04,465.113 1090.54,460.947 1091,455.5C 1092.62,399.187 1092.96,342.854 1092,286.5C 1081.75,270.792 1067.25,263.125 1048.5,263.5C 1048.5,260.833 1048.5,258.167 1048.5,255.5 Z"/></g>
<g><path style="opacity:0.97" fill="#000000" d="M 1306.5,255.5 C 1339.5,255.333 1372.5,255.5 1405.5,256C 1429.16,255.923 1449,264.423 1465,281.5C 1479.71,303.083 1481.37,325.75 1470,349.5C 1458.94,366.79 1443.11,376.623 1422.5,379C 1405.63,380.383 1388.96,379.216 1372.5,375.5C 1371.33,400.827 1371.17,426.16 1372,451.5C 1371.58,460.832 1375.74,466.998 1384.5,470C 1390.76,471.317 1397.09,471.817 1403.5,471.5C 1403.5,474.167 1403.5,476.833 1403.5,479.5C 1371.17,479.5 1338.83,479.5 1306.5,479.5C 1306.5,476.833 1306.5,474.167 1306.5,471.5C 1312.91,471.817 1319.24,471.317 1325.5,470C 1334.96,465.591 1339.13,458.091 1338,447.5C 1338.67,394.167 1338.67,340.833 1338,287.5C 1339.54,275.012 1334.38,267.178 1322.5,264C 1317.18,263.501 1311.84,263.334 1306.5,263.5C 1306.5,260.833 1306.5,258.167 1306.5,255.5 Z M 1385.5,270.5 C 1419.49,269.99 1437.16,286.823 1438.5,321C 1437.5,348.488 1423.5,363.988 1396.5,367.5C 1388.11,366.909 1379.77,365.909 1371.5,364.5C 1371.17,334.159 1371.5,303.826 1372.5,273.5C 1376.94,272.4 1381.27,271.4 1385.5,270.5 Z"/></g>
<g><path style="opacity:0.899" fill="#000000" d="M 1581.5,516.5 C 1601.94,513.942 1612.61,522.942 1613.5,543.5C 1611.75,564.75 1600.41,573.25 1579.5,569C 1568.5,564.138 1563.5,555.638 1564.5,543.5C 1563.4,529.998 1569.07,520.998 1581.5,516.5 Z M 1585.5,524.5 C 1594.94,524.121 1600.77,528.454 1603,537.5C 1604.25,544.215 1603.25,550.548 1600,556.5C 1593.88,562.181 1587.04,563.014 1579.5,559C 1573.52,551.741 1572.02,543.574 1575,534.5C 1577.11,529.557 1580.61,526.224 1585.5,524.5 Z"/></g>
<g><path style="opacity:0.963" fill="#000000" d="M 796.5,517.5 C 799.5,517.5 802.5,517.5 805.5,517.5C 805.5,534.5 805.5,551.5 805.5,568.5C 802.5,568.5 799.5,568.5 796.5,568.5C 796.5,551.5 796.5,534.5 796.5,517.5 Z"/></g>
<g><path style="opacity:0.901" fill="#000000" d="M 860.5,517.5 C 863.85,517.335 867.183,517.502 870.5,518C 878.375,529.58 885.875,541.413 893,553.5C 893.5,541.505 893.667,529.505 893.5,517.5C 896.5,517.5 899.5,517.5 902.5,517.5C 902.5,534.5 902.5,551.5 902.5,568.5C 898.774,568.823 895.107,568.489 891.5,567.5C 884.531,556.033 877.364,544.7 870,533.5C 869.5,545.162 869.333,556.829 869.5,568.5C 866.5,568.5 863.5,568.5 860.5,568.5C 860.5,551.5 860.5,534.5 860.5,517.5 Z"/></g>
<g><path style="opacity:0.859" fill="#000000" d="M 952.5,517.5 C 965.833,517.5 979.167,517.5 992.5,517.5C 992.5,520.5 992.5,523.5 992.5,526.5C 987.5,526.5 982.5,526.5 977.5,526.5C 977.5,540.5 977.5,554.5 977.5,568.5C 974.167,568.5 970.833,568.5 967.5,568.5C 967.5,554.5 967.5,540.5 967.5,526.5C 962.5,526.5 957.5,526.5 952.5,526.5C 952.5,523.5 952.5,520.5 952.5,517.5 Z"/></g>
<g><path style="opacity:0.906" fill="#000000" d="M 1041.5,517.5 C 1053.83,517.5 1066.17,517.5 1078.5,517.5C 1078.5,520.5 1078.5,523.5 1078.5,526.5C 1069.17,526.5 1059.83,526.5 1050.5,526.5C 1050.5,530.5 1050.5,534.5 1050.5,538.5C 1059.17,538.5 1067.83,538.5 1076.5,538.5C 1076.5,541.167 1076.5,543.833 1076.5,546.5C 1067.83,546.5 1059.17,546.5 1050.5,546.5C 1050.5,551.167 1050.5,555.833 1050.5,560.5C 1060.17,560.5 1069.83,560.5 1079.5,560.5C 1079.5,563.167 1079.5,565.833 1079.5,568.5C 1066.83,568.5 1054.17,568.5 1041.5,568.5C 1041.5,551.5 1041.5,534.5 1041.5,517.5 Z"/></g>
<g><path style="opacity:0.887" fill="#000000" d="M 1133.5,517.5 C 1143.17,517.334 1152.84,517.5 1162.5,518C 1172.78,521.779 1175.94,528.946 1172,539.5C 1170.5,541 1169,542.5 1167.5,544C 1170.09,545.339 1171.59,547.506 1172,550.5C 1172.1,556.652 1172.93,562.652 1174.5,568.5C 1170.83,568.5 1167.17,568.5 1163.5,568.5C 1163.49,562.413 1162.82,556.413 1161.5,550.5C 1160.97,549.808 1160.31,549.308 1159.5,549C 1154.18,548.501 1148.84,548.334 1143.5,548.5C 1143.5,555.167 1143.5,561.833 1143.5,568.5C 1140.17,568.5 1136.83,568.5 1133.5,568.5C 1133.5,551.5 1133.5,534.5 1133.5,517.5 Z M 1143.5,525.5 C 1148.51,525.334 1153.51,525.501 1158.5,526C 1163.14,528.025 1164.64,531.525 1163,536.5C 1162.5,537.667 1161.67,538.5 1160.5,539C 1154.91,540.289 1149.24,540.789 1143.5,540.5C 1143.5,535.5 1143.5,530.5 1143.5,525.5 Z"/></g>
<g><path style="opacity:0.9" fill="#000000" d="M 1230.5,517.5 C 1233.85,517.335 1237.18,517.502 1240.5,518C 1248.37,529.58 1255.87,541.413 1263,553.5C 1263.5,541.505 1263.67,529.505 1263.5,517.5C 1266.5,517.5 1269.5,517.5 1272.5,517.5C 1272.5,534.5 1272.5,551.5 1272.5,568.5C 1268.77,568.823 1265.11,568.489 1261.5,567.5C 1254.53,556.033 1247.36,544.7 1240,533.5C 1239.5,545.162 1239.33,556.829 1239.5,568.5C 1236.5,568.5 1233.5,568.5 1230.5,568.5C 1230.5,551.5 1230.5,534.5 1230.5,517.5 Z"/></g>
<g><path style="opacity:0.904" fill="#000000" d="M 1339.5,517.5 C 1343.23,517.177 1346.89,517.511 1350.5,518.5C 1357.1,534.973 1363.1,551.64 1368.5,568.5C 1365.1,568.82 1361.77,568.487 1358.5,567.5C 1357.17,563.833 1355.83,560.167 1354.5,556.5C 1348.2,555.504 1341.87,555.17 1335.5,555.5C 1334.67,559.83 1333.33,563.996 1331.5,568C 1328.17,568.667 1324.83,568.667 1321.5,568C 1328,551.338 1334,534.504 1339.5,517.5 Z M 1344.5,529.5 C 1345.12,529.611 1345.62,529.944 1346,530.5C 1347.73,535.871 1349.57,541.204 1351.5,546.5C 1347.2,547.661 1342.87,547.828 1338.5,547C 1340.8,541.26 1342.8,535.427 1344.5,529.5 Z"/></g>
<g><path style="opacity:0.872" fill="#000000" d="M 1410.5,517.5 C 1423.83,517.5 1437.17,517.5 1450.5,517.5C 1450.5,520.5 1450.5,523.5 1450.5,526.5C 1445.5,526.5 1440.5,526.5 1435.5,526.5C 1435.5,540.5 1435.5,554.5 1435.5,568.5C 1432.17,568.5 1428.83,568.5 1425.5,568.5C 1425.5,554.5 1425.5,540.5 1425.5,526.5C 1420.5,526.5 1415.5,526.5 1410.5,526.5C 1410.5,523.5 1410.5,520.5 1410.5,517.5 Z"/></g>
<g><path style="opacity:0.963" fill="#000000" d="M 1502.5,517.5 C 1505.5,517.5 1508.5,517.5 1511.5,517.5C 1511.5,534.5 1511.5,551.5 1511.5,568.5C 1508.5,568.5 1505.5,568.5 1502.5,568.5C 1502.5,551.5 1502.5,534.5 1502.5,517.5 Z"/></g>
<g><path style="opacity:0.911" fill="#000000" d="M 1658.5,517.5 C 1662.23,517.177 1665.89,517.511 1669.5,518.5C 1676.67,530.167 1683.83,541.833 1691,553.5C 1691.5,541.505 1691.67,529.505 1691.5,517.5C 1694.5,517.5 1697.5,517.5 1700.5,517.5C 1700.5,534.5 1700.5,551.5 1700.5,568.5C 1696.77,568.823 1693.11,568.489 1689.5,567.5C 1682.33,555.833 1675.17,544.167 1668,532.5C 1667.5,544.495 1667.33,556.495 1667.5,568.5C 1664.5,568.5 1661.5,568.5 1658.5,568.5C 1658.5,551.5 1658.5,534.5 1658.5,517.5 Z"/></g>
<g><path style="opacity:0.904" fill="#000000" d="M 1768.5,517.5 C 1772.67,516.956 1776.51,517.623 1780,519.5C 1785.73,535.538 1791.57,551.538 1797.5,567.5C 1794.17,568.833 1790.83,568.833 1787.5,567.5C 1785.96,563.539 1784.62,559.539 1783.5,555.5C 1777.13,555.17 1770.8,555.504 1764.5,556.5C 1763.17,560.167 1761.83,563.833 1760.5,567.5C 1757.17,568.833 1753.83,568.833 1750.5,567.5C 1756.7,550.886 1762.7,534.219 1768.5,517.5 Z M 1773.5,528.5 C 1775.91,534.546 1778.24,540.712 1780.5,547C 1776.17,547.667 1771.83,547.667 1767.5,547C 1770,540.997 1772,534.831 1773.5,528.5 Z"/></g>
<g><path style="opacity:0.962" fill="#000000" d="M 1847.5,517.5 C 1850.5,517.5 1853.5,517.5 1856.5,517.5C 1856.5,531.833 1856.5,546.167 1856.5,560.5C 1864.83,560.5 1873.17,560.5 1881.5,560.5C 1881.5,563.167 1881.5,565.833 1881.5,568.5C 1870.17,568.5 1858.83,568.5 1847.5,568.5C 1847.5,551.5 1847.5,534.5 1847.5,517.5 Z"/></g>
</svg>
